<<<<<<< HEAD
<mxfile host="Electron" modified="2023-06-28T13:33:51.888Z" agent="Mozilla/5.0 (Windows NT 10.0; Win64; x64) AppleWebKit/537.36 (KHTML, like Gecko) draw.io/21.2.8 Chrome/112.0.5615.165 Electron/24.2.0 Safari/537.36" etag="3PiPtmMqr3Q96LA6crsA" version="21.2.8" type="device" pages="2">
  <diagram name="Page-1" id="0oa0uu0qR5K2CftN4bq0">
    <mxGraphModel dx="1607" dy="1728" grid="1" gridSize="10" guides="1" tooltips="1" connect="1" arrows="1" fold="1" page="1" pageScale="1" pageWidth="827" pageHeight="1169" math="0" shadow="0">
=======
<mxfile host="Electron" modified="2023-06-04T15:45:06.291Z" agent="Mozilla/5.0 (Windows NT 10.0; Win64; x64) AppleWebKit/537.36 (KHTML, like Gecko) draw.io/21.2.8 Chrome/112.0.5615.165 Electron/24.2.0 Safari/537.36" etag="NZ8WTf4i0a3r-ukqog_5" version="21.2.8" type="device" pages="2">
  <diagram name="Page-1" id="0oa0uu0qR5K2CftN4bq0">
    <mxGraphModel dx="2901" dy="2413" grid="1" gridSize="10" guides="1" tooltips="1" connect="1" arrows="1" fold="1" page="1" pageScale="1" pageWidth="827" pageHeight="1169" math="0" shadow="0">
>>>>>>> 58f25b2019dedea0701d8c639c47b384e1c0a5da
      <root>
        <mxCell id="0" />
        <mxCell id="1" parent="0" />
        <mxCell id="23ZWPcW0NpWNjmYtjL-m-1" value="B_SHR[0]" style="rounded=0;whiteSpace=wrap;html=1;fontStyle=1" parent="1" vertex="1">
          <mxGeometry x="40" y="520" width="200" height="40" as="geometry" />
        </mxCell>
        <mxCell id="23ZWPcW0NpWNjmYtjL-m-2" value="B_SHR[2]" style="rounded=0;whiteSpace=wrap;html=1;fontStyle=1" parent="1" vertex="1">
          <mxGeometry x="40" y="600" width="200" height="40" as="geometry" />
        </mxCell>
        <mxCell id="23ZWPcW0NpWNjmYtjL-m-3" value="B_SHR[1]" style="rounded=0;whiteSpace=wrap;html=1;fontStyle=1" parent="1" vertex="1">
          <mxGeometry x="40" y="560" width="200" height="40" as="geometry" />
        </mxCell>
        <mxCell id="23ZWPcW0NpWNjmYtjL-m-4" value="B_SHR[N-1]" style="rounded=0;whiteSpace=wrap;html=1;fontStyle=1" parent="1" vertex="1">
          <mxGeometry x="40" y="720" width="200" height="40" as="geometry" />
        </mxCell>
        <mxCell id="23ZWPcW0NpWNjmYtjL-m-5" value="" style="shape=waypoint;sketch=0;fillStyle=solid;size=6;pointerEvents=1;points=[];fillColor=none;resizable=0;rotatable=0;perimeter=centerPerimeter;snapToPoint=1;" parent="1" vertex="1">
          <mxGeometry x="130" y="650" width="20" height="20" as="geometry" />
        </mxCell>
        <mxCell id="23ZWPcW0NpWNjmYtjL-m-6" value="" style="shape=waypoint;sketch=0;fillStyle=solid;size=6;pointerEvents=1;points=[];fillColor=none;resizable=0;rotatable=0;perimeter=centerPerimeter;snapToPoint=1;" parent="1" vertex="1">
          <mxGeometry x="130" y="670" width="20" height="20" as="geometry" />
        </mxCell>
        <mxCell id="23ZWPcW0NpWNjmYtjL-m-7" value="" style="shape=waypoint;sketch=0;fillStyle=solid;size=6;pointerEvents=1;points=[];fillColor=none;resizable=0;rotatable=0;perimeter=centerPerimeter;snapToPoint=1;" parent="1" vertex="1">
          <mxGeometry x="130" y="690" width="20" height="20" as="geometry" />
        </mxCell>
        <mxCell id="23ZWPcW0NpWNjmYtjL-m-8" value="B_CNT_SHR[1]" style="rounded=0;whiteSpace=wrap;html=1;fontStyle=1" parent="1" vertex="1">
          <mxGeometry x="80" y="1080" width="120" height="40" as="geometry" />
        </mxCell>
        <mxCell id="23ZWPcW0NpWNjmYtjL-m-9" value="B_CNT_SHR[2]" style="rounded=0;whiteSpace=wrap;html=1;fontStyle=1" parent="1" vertex="1">
          <mxGeometry x="80" y="1120" width="120" height="40" as="geometry" />
        </mxCell>
        <mxCell id="23ZWPcW0NpWNjmYtjL-m-10" value="B_CNT_SHR[3]" style="rounded=0;whiteSpace=wrap;html=1;fontStyle=1" parent="1" vertex="1">
          <mxGeometry x="80" y="1160" width="120" height="40" as="geometry" />
        </mxCell>
        <mxCell id="23ZWPcW0NpWNjmYtjL-m-11" value="B_CNT_SHR[N-1]" style="rounded=0;whiteSpace=wrap;html=1;fontStyle=1" parent="1" vertex="1">
          <mxGeometry x="80" y="1280" width="120" height="40" as="geometry" />
        </mxCell>
        <mxCell id="23ZWPcW0NpWNjmYtjL-m-12" value="VECTOR_CONCATENATOR" style="rounded=0;whiteSpace=wrap;html=1;fontStyle=1" parent="1" vertex="1">
          <mxGeometry x="400" y="-110" width="240" height="60" as="geometry" />
        </mxCell>
        <mxCell id="23ZWPcW0NpWNjmYtjL-m-13" value="" style="shape=flexArrow;endArrow=classic;html=1;rounded=0;strokeColor=none;fillColor=#8A8A8A;exitX=0.25;exitY=1;exitDx=0;exitDy=0;" parent="1" source="23ZWPcW0NpWNjmYtjL-m-12" edge="1">
          <mxGeometry width="50" height="50" relative="1" as="geometry">
            <mxPoint x="350" y="160" as="sourcePoint" />
            <mxPoint x="460" y="50" as="targetPoint" />
          </mxGeometry>
        </mxCell>
        <mxCell id="23ZWPcW0NpWNjmYtjL-m-14" value="w_SubVector" style="edgeLabel;html=1;align=center;verticalAlign=middle;resizable=0;points=[];rotation=-90;fontStyle=1" parent="23ZWPcW0NpWNjmYtjL-m-13" vertex="1" connectable="0">
          <mxGeometry x="-0.4" relative="1" as="geometry">
            <mxPoint x="-20" y="10" as="offset" />
          </mxGeometry>
        </mxCell>
        <mxCell id="23ZWPcW0NpWNjmYtjL-m-15" value="" style="endArrow=classic;html=1;rounded=0;exitX=0.75;exitY=1;exitDx=0;exitDy=0;" parent="1" source="23ZWPcW0NpWNjmYtjL-m-12" edge="1">
          <mxGeometry width="50" height="50" relative="1" as="geometry">
            <mxPoint x="350" y="160" as="sourcePoint" />
            <mxPoint x="580" y="50" as="targetPoint" />
          </mxGeometry>
        </mxCell>
        <mxCell id="23ZWPcW0NpWNjmYtjL-m-16" value="w_Valid" style="edgeLabel;html=1;align=center;verticalAlign=middle;resizable=0;points=[];fontStyle=1;rotation=-90;" parent="23ZWPcW0NpWNjmYtjL-m-15" vertex="1" connectable="0">
          <mxGeometry x="-0.54" relative="1" as="geometry">
            <mxPoint x="-10" y="27" as="offset" />
          </mxGeometry>
        </mxCell>
        <mxCell id="23ZWPcW0NpWNjmYtjL-m-17" value="CNT1&lt;br&gt;&lt;span style=&quot;font-weight: normal;&quot;&gt;(pre_stage_unit)&lt;/span&gt;" style="rounded=0;whiteSpace=wrap;html=1;fontStyle=1" parent="1" vertex="1">
          <mxGeometry x="400" y="50" width="240" height="60" as="geometry" />
        </mxCell>
        <mxCell id="23ZWPcW0NpWNjmYtjL-m-18" value="" style="shape=flexArrow;endArrow=classic;html=1;rounded=0;strokeColor=none;fillColor=#8A8A8A;exitX=0.25;exitY=1;exitDx=0;exitDy=0;edgeStyle=orthogonalEdgeStyle;entryX=0.5;entryY=0;entryDx=0;entryDy=0;" parent="1" source="23ZWPcW0NpWNjmYtjL-m-17" target="23ZWPcW0NpWNjmYtjL-m-1" edge="1">
          <mxGeometry width="50" height="50" relative="1" as="geometry">
            <mxPoint x="460" y="120" as="sourcePoint" />
            <mxPoint x="460" y="210" as="targetPoint" />
            <Array as="points">
              <mxPoint x="460" y="210" />
              <mxPoint x="140" y="210" />
            </Array>
          </mxGeometry>
        </mxCell>
        <mxCell id="23ZWPcW0NpWNjmYtjL-m-19" value="w_SubVector" style="edgeLabel;html=1;align=center;verticalAlign=middle;resizable=0;points=[];rotation=-90;fontStyle=1" parent="23ZWPcW0NpWNjmYtjL-m-18" vertex="1" connectable="0">
          <mxGeometry x="-0.4" relative="1" as="geometry">
            <mxPoint x="99" y="-50" as="offset" />
          </mxGeometry>
        </mxCell>
        <mxCell id="23ZWPcW0NpWNjmYtjL-m-20" value="" style="shape=flexArrow;endArrow=classic;html=1;rounded=0;strokeColor=none;fillColor=#8A8A8A;exitX=0.25;exitY=1;exitDx=0;exitDy=0;edgeStyle=orthogonalEdgeStyle;entryX=0.5;entryY=0;entryDx=0;entryDy=0;" parent="1" target="23ZWPcW0NpWNjmYtjL-m-8" edge="1">
          <mxGeometry width="50" height="50" relative="1" as="geometry">
            <mxPoint x="519.5" y="110" as="sourcePoint" />
            <mxPoint x="519.5" y="210" as="targetPoint" />
            <Array as="points">
              <mxPoint x="520" y="260" />
              <mxPoint x="320" y="260" />
              <mxPoint x="320" y="1000" />
              <mxPoint x="140" y="1000" />
            </Array>
          </mxGeometry>
        </mxCell>
        <mxCell id="23ZWPcW0NpWNjmYtjL-m-21" value="w_Cnt" style="edgeLabel;html=1;align=center;verticalAlign=middle;resizable=0;points=[];rotation=-90;fontStyle=1" parent="23ZWPcW0NpWNjmYtjL-m-20" vertex="1" connectable="0">
          <mxGeometry x="-0.4" relative="1" as="geometry">
            <mxPoint x="-20" y="10" as="offset" />
          </mxGeometry>
        </mxCell>
        <mxCell id="23ZWPcW0NpWNjmYtjL-m-22" value="" style="endArrow=classic;html=1;rounded=0;" parent="1" edge="1">
          <mxGeometry width="50" height="50" relative="1" as="geometry">
            <mxPoint x="580" y="110" as="sourcePoint" />
            <mxPoint x="580" y="210" as="targetPoint" />
          </mxGeometry>
        </mxCell>
        <mxCell id="23ZWPcW0NpWNjmYtjL-m-23" value="w_NewCnt" style="edgeLabel;html=1;align=center;verticalAlign=middle;resizable=0;points=[];fontStyle=1;rotation=-90;" parent="23ZWPcW0NpWNjmYtjL-m-22" vertex="1" connectable="0">
          <mxGeometry x="-0.54" relative="1" as="geometry">
            <mxPoint x="-10" y="27" as="offset" />
          </mxGeometry>
        </mxCell>
        <mxCell id="23ZWPcW0NpWNjmYtjL-m-25" value="DELAY" style="rounded=0;whiteSpace=wrap;html=1;fontStyle=1;rotation=-90;" parent="1" vertex="1">
          <mxGeometry x="-111.55999999999999" y="-6.280000000000001" width="223.13" height="30" as="geometry" />
        </mxCell>
        <mxCell id="23ZWPcW0NpWNjmYtjL-m-26" value="" style="endArrow=classic;html=1;rounded=0;entryX=1;entryY=0.5;entryDx=0;entryDy=0;" parent="1" target="23ZWPcW0NpWNjmYtjL-m-25" edge="1">
          <mxGeometry width="50" height="50" relative="1" as="geometry">
            <mxPoint x="0.01" y="-160" as="sourcePoint" />
            <mxPoint x="151.57999999999998" y="0.28000000000000114" as="targetPoint" />
          </mxGeometry>
        </mxCell>
        <mxCell id="23ZWPcW0NpWNjmYtjL-m-27" value="i_B_or_A" style="text;html=1;strokeColor=none;fillColor=none;align=center;verticalAlign=middle;whiteSpace=wrap;rounded=0;rotation=-90;fontStyle=1" parent="1" vertex="1">
          <mxGeometry x="-48.42000000000001" y="-149.72" width="60" height="30" as="geometry" />
        </mxCell>
        <mxCell id="23ZWPcW0NpWNjmYtjL-m-31" value="" style="endArrow=classic;html=1;rounded=0;exitX=0;exitY=0.5;exitDx=0;exitDy=0;entryDx=0;entryDy=0;edgeStyle=orthogonalEdgeStyle;entryX=0;entryY=0.5;" parent="1" source="23ZWPcW0NpWNjmYtjL-m-25" target="23ZWPcW0NpWNjmYtjL-m-1" edge="1">
          <mxGeometry width="50" height="50" relative="1" as="geometry">
            <mxPoint x="2" y="298" as="sourcePoint" />
            <mxPoint x="40" y="540" as="targetPoint" />
            <Array as="points">
              <mxPoint y="298" />
              <mxPoint y="540" />
            </Array>
          </mxGeometry>
        </mxCell>
        <mxCell id="23ZWPcW0NpWNjmYtjL-m-29" value="" style="shape=waypoint;sketch=0;fillStyle=solid;size=6;pointerEvents=1;points=[];fillColor=none;resizable=0;rotatable=0;perimeter=centerPerimeter;snapToPoint=1;" parent="1" vertex="1">
          <mxGeometry x="-9.999999999999998" y="530" width="20" height="20" as="geometry" />
        </mxCell>
        <mxCell id="23ZWPcW0NpWNjmYtjL-m-33" value="" style="shape=waypoint;sketch=0;fillStyle=solid;size=6;pointerEvents=1;points=[];fillColor=none;resizable=0;rotatable=0;perimeter=centerPerimeter;snapToPoint=1;" parent="1" vertex="1">
          <mxGeometry x="-9.999999999999998" y="570" width="20" height="20" as="geometry" />
        </mxCell>
        <mxCell id="23ZWPcW0NpWNjmYtjL-m-36" value="" style="shape=waypoint;sketch=0;fillStyle=solid;size=6;pointerEvents=1;points=[];fillColor=none;resizable=0;rotatable=0;perimeter=centerPerimeter;snapToPoint=1;" parent="1" vertex="1">
          <mxGeometry x="-9.999999999999998" y="610" width="20" height="20" as="geometry" />
        </mxCell>
        <mxCell id="23ZWPcW0NpWNjmYtjL-m-39" value="" style="shape=waypoint;sketch=0;fillStyle=solid;size=6;pointerEvents=1;points=[];fillColor=none;resizable=0;rotatable=0;perimeter=centerPerimeter;snapToPoint=1;" parent="1" vertex="1">
          <mxGeometry x="130" y="1210" width="20" height="20" as="geometry" />
        </mxCell>
        <mxCell id="23ZWPcW0NpWNjmYtjL-m-40" value="" style="shape=waypoint;sketch=0;fillStyle=solid;size=6;pointerEvents=1;points=[];fillColor=none;resizable=0;rotatable=0;perimeter=centerPerimeter;snapToPoint=1;" parent="1" vertex="1">
          <mxGeometry x="130" y="1230" width="20" height="20" as="geometry" />
        </mxCell>
        <mxCell id="23ZWPcW0NpWNjmYtjL-m-41" value="" style="shape=waypoint;sketch=0;fillStyle=solid;size=6;pointerEvents=1;points=[];fillColor=none;resizable=0;rotatable=0;perimeter=centerPerimeter;snapToPoint=1;" parent="1" vertex="1">
          <mxGeometry x="130" y="1250" width="20" height="20" as="geometry" />
        </mxCell>
        <mxCell id="23ZWPcW0NpWNjmYtjL-m-42" value="" style="shape=waypoint;sketch=0;fillStyle=solid;size=6;pointerEvents=1;points=[];fillColor=none;resizable=0;rotatable=0;perimeter=centerPerimeter;snapToPoint=1;" parent="1" vertex="1">
          <mxGeometry x="-10.000000000000007" y="650" width="20" height="20" as="geometry" />
        </mxCell>
        <mxCell id="23ZWPcW0NpWNjmYtjL-m-43" value="" style="shape=waypoint;sketch=0;fillStyle=solid;size=6;pointerEvents=1;points=[];fillColor=none;resizable=0;rotatable=0;perimeter=centerPerimeter;snapToPoint=1;" parent="1" vertex="1">
          <mxGeometry x="-10.000000000000007" y="670" width="20" height="20" as="geometry" />
        </mxCell>
        <mxCell id="23ZWPcW0NpWNjmYtjL-m-44" value="" style="shape=waypoint;sketch=0;fillStyle=solid;size=6;pointerEvents=1;points=[];fillColor=none;resizable=0;rotatable=0;perimeter=centerPerimeter;snapToPoint=1;" parent="1" vertex="1">
          <mxGeometry x="-10.000000000000007" y="690" width="20" height="20" as="geometry" />
        </mxCell>
        <mxCell id="23ZWPcW0NpWNjmYtjL-m-47" value="" style="endArrow=none;html=1;rounded=0;exitX=0.663;exitY=0.43;exitDx=0;exitDy=0;exitPerimeter=0;" parent="1" source="23ZWPcW0NpWNjmYtjL-m-33" target="23ZWPcW0NpWNjmYtjL-m-29" edge="1">
          <mxGeometry width="50" height="50" relative="1" as="geometry">
            <mxPoint x="-11.56" y="600" as="sourcePoint" />
            <mxPoint x="38.44" y="550" as="targetPoint" />
          </mxGeometry>
        </mxCell>
        <mxCell id="23ZWPcW0NpWNjmYtjL-m-48" value="" style="endArrow=none;html=1;rounded=0;exitX=0.395;exitY=0.523;exitDx=0;exitDy=0;exitPerimeter=0;entryX=0.642;entryY=0.472;entryDx=0;entryDy=0;entryPerimeter=0;" parent="1" source="23ZWPcW0NpWNjmYtjL-m-36" target="23ZWPcW0NpWNjmYtjL-m-33" edge="1">
          <mxGeometry width="50" height="50" relative="1" as="geometry">
            <mxPoint x="-11.56" y="600" as="sourcePoint" />
            <mxPoint x="38.44" y="550" as="targetPoint" />
          </mxGeometry>
        </mxCell>
        <mxCell id="23ZWPcW0NpWNjmYtjL-m-49" value="" style="endArrow=classic;html=1;rounded=0;exitX=0.652;exitY=0.575;exitDx=0;exitDy=0;exitPerimeter=0;entryX=0;entryY=0.5;entryDx=0;entryDy=0;" parent="1" source="23ZWPcW0NpWNjmYtjL-m-33" target="23ZWPcW0NpWNjmYtjL-m-3" edge="1">
          <mxGeometry width="50" height="50" relative="1" as="geometry">
            <mxPoint x="-10" y="600" as="sourcePoint" />
            <mxPoint x="40" y="550" as="targetPoint" />
          </mxGeometry>
        </mxCell>
        <mxCell id="23ZWPcW0NpWNjmYtjL-m-50" value="" style="endArrow=classic;html=1;rounded=0;entryX=0;entryY=0.5;entryDx=0;entryDy=0;" parent="1" source="23ZWPcW0NpWNjmYtjL-m-36" target="23ZWPcW0NpWNjmYtjL-m-2" edge="1">
          <mxGeometry width="50" height="50" relative="1" as="geometry">
            <mxPoint x="-10" y="600" as="sourcePoint" />
            <mxPoint x="40" y="550" as="targetPoint" />
          </mxGeometry>
        </mxCell>
        <mxCell id="23ZWPcW0NpWNjmYtjL-m-51" value="" style="endArrow=classic;html=1;rounded=0;entryX=0;entryY=0.5;entryDx=0;entryDy=0;edgeStyle=orthogonalEdgeStyle;" parent="1" source="23ZWPcW0NpWNjmYtjL-m-52" target="23ZWPcW0NpWNjmYtjL-m-4" edge="1">
          <mxGeometry width="50" height="50" relative="1" as="geometry">
            <mxPoint y="720" as="sourcePoint" />
            <mxPoint x="40" y="630" as="targetPoint" />
            <Array as="points">
              <mxPoint y="740" />
            </Array>
          </mxGeometry>
        </mxCell>
        <mxCell id="23ZWPcW0NpWNjmYtjL-m-52" value="" style="shape=waypoint;sketch=0;fillStyle=solid;size=6;pointerEvents=1;points=[];fillColor=none;resizable=0;rotatable=0;perimeter=centerPerimeter;snapToPoint=1;" parent="1" vertex="1">
          <mxGeometry x="-10" y="730" width="20" height="20" as="geometry" />
        </mxCell>
        <mxCell id="23ZWPcW0NpWNjmYtjL-m-55" value="" style="endArrow=none;html=1;rounded=0;exitX=0.668;exitY=0.468;exitDx=0;exitDy=0;exitPerimeter=0;" parent="1" source="23ZWPcW0NpWNjmYtjL-m-52" edge="1">
          <mxGeometry width="50" height="50" relative="1" as="geometry">
            <mxPoint x="170" y="770" as="sourcePoint" />
            <mxPoint y="720" as="targetPoint" />
          </mxGeometry>
        </mxCell>
        <mxCell id="23ZWPcW0NpWNjmYtjL-m-56" value="" style="endArrow=classic;html=1;rounded=0;edgeStyle=orthogonalEdgeStyle;exitDx=0;exitDy=0;exitPerimeter=0;entryX=0;entryY=0.5;entryDx=0;entryDy=0;" parent="1" source="23ZWPcW0NpWNjmYtjL-m-57" target="23ZWPcW0NpWNjmYtjL-m-8" edge="1">
          <mxGeometry width="50" height="50" relative="1" as="geometry">
            <mxPoint x="170" y="1050" as="sourcePoint" />
            <mxPoint x="220" y="1000" as="targetPoint" />
            <Array as="points">
              <mxPoint y="1100" />
            </Array>
          </mxGeometry>
        </mxCell>
        <mxCell id="23ZWPcW0NpWNjmYtjL-m-57" value="" style="shape=waypoint;sketch=0;fillStyle=solid;size=6;pointerEvents=1;points=[];fillColor=none;resizable=0;rotatable=0;perimeter=centerPerimeter;snapToPoint=1;" parent="1" vertex="1">
          <mxGeometry x="-10" y="1090" width="20" height="20" as="geometry" />
        </mxCell>
        <mxCell id="23ZWPcW0NpWNjmYtjL-m-59" value="" style="shape=waypoint;sketch=0;fillStyle=solid;size=6;pointerEvents=1;points=[];fillColor=none;resizable=0;rotatable=0;perimeter=centerPerimeter;snapToPoint=1;" parent="1" vertex="1">
          <mxGeometry x="-10" y="1130" width="20" height="20" as="geometry" />
        </mxCell>
        <mxCell id="23ZWPcW0NpWNjmYtjL-m-60" value="" style="shape=waypoint;sketch=0;fillStyle=solid;size=6;pointerEvents=1;points=[];fillColor=none;resizable=0;rotatable=0;perimeter=centerPerimeter;snapToPoint=1;" parent="1" vertex="1">
          <mxGeometry x="-10" y="1170" width="20" height="20" as="geometry" />
        </mxCell>
        <mxCell id="23ZWPcW0NpWNjmYtjL-m-62" value="" style="endArrow=none;html=1;rounded=0;exitX=0.521;exitY=0.388;exitDx=0;exitDy=0;exitPerimeter=0;entryX=0.469;entryY=0.671;entryDx=0;entryDy=0;entryPerimeter=0;" parent="1" source="23ZWPcW0NpWNjmYtjL-m-60" target="23ZWPcW0NpWNjmYtjL-m-57" edge="1">
          <mxGeometry width="50" height="50" relative="1" as="geometry">
            <mxPoint x="130" y="1160" as="sourcePoint" />
            <mxPoint x="180" y="1110" as="targetPoint" />
          </mxGeometry>
        </mxCell>
        <mxCell id="23ZWPcW0NpWNjmYtjL-m-63" value="" style="endArrow=classic;html=1;rounded=0;edgeStyle=orthogonalEdgeStyle;exitDx=0;exitDy=0;exitPerimeter=0;entryX=0;entryY=0.5;entryDx=0;entryDy=0;exitX=0.444;exitY=0.388;" parent="1" source="23ZWPcW0NpWNjmYtjL-m-59" target="23ZWPcW0NpWNjmYtjL-m-9" edge="1">
          <mxGeometry width="50" height="50" relative="1" as="geometry">
            <mxPoint x="10" y="1110" as="sourcePoint" />
            <mxPoint x="90" y="1110" as="targetPoint" />
            <Array as="points" />
          </mxGeometry>
        </mxCell>
        <mxCell id="23ZWPcW0NpWNjmYtjL-m-64" value="" style="endArrow=classic;html=1;rounded=0;edgeStyle=orthogonalEdgeStyle;exitDx=0;exitDy=0;exitPerimeter=0;entryX=0;entryY=0.5;entryDx=0;entryDy=0;" parent="1" edge="1">
          <mxGeometry width="50" height="50" relative="1" as="geometry">
            <mxPoint y="1179.74" as="sourcePoint" />
            <mxPoint x="80" y="1179.74" as="targetPoint" />
            <Array as="points">
              <mxPoint y="1179.74" />
            </Array>
          </mxGeometry>
        </mxCell>
        <mxCell id="23ZWPcW0NpWNjmYtjL-m-65" value="" style="shape=waypoint;sketch=0;fillStyle=solid;size=6;pointerEvents=1;points=[];fillColor=none;resizable=0;rotatable=0;perimeter=centerPerimeter;snapToPoint=1;" parent="1" vertex="1">
          <mxGeometry x="-10" y="1210" width="20" height="20" as="geometry" />
        </mxCell>
        <mxCell id="23ZWPcW0NpWNjmYtjL-m-66" value="" style="shape=waypoint;sketch=0;fillStyle=solid;size=6;pointerEvents=1;points=[];fillColor=none;resizable=0;rotatable=0;perimeter=centerPerimeter;snapToPoint=1;" parent="1" vertex="1">
          <mxGeometry x="-10" y="1230" width="20" height="20" as="geometry" />
        </mxCell>
        <mxCell id="23ZWPcW0NpWNjmYtjL-m-67" value="" style="shape=waypoint;sketch=0;fillStyle=solid;size=6;pointerEvents=1;points=[];fillColor=none;resizable=0;rotatable=0;perimeter=centerPerimeter;snapToPoint=1;" parent="1" vertex="1">
          <mxGeometry x="-10" y="1250" width="20" height="20" as="geometry" />
        </mxCell>
        <mxCell id="23ZWPcW0NpWNjmYtjL-m-68" value="" style="shape=waypoint;sketch=0;fillStyle=solid;size=6;pointerEvents=1;points=[];fillColor=none;resizable=0;rotatable=0;perimeter=centerPerimeter;snapToPoint=1;" parent="1" vertex="1">
          <mxGeometry x="-9.999999999999998" y="1290" width="20" height="20" as="geometry" />
        </mxCell>
        <mxCell id="23ZWPcW0NpWNjmYtjL-m-69" value="" style="endArrow=classic;html=1;rounded=0;entryX=0;entryY=0.5;entryDx=0;entryDy=0;" parent="1" source="23ZWPcW0NpWNjmYtjL-m-68" target="23ZWPcW0NpWNjmYtjL-m-11" edge="1">
          <mxGeometry width="50" height="50" relative="1" as="geometry">
            <mxPoint x="50" y="1250" as="sourcePoint" />
            <mxPoint x="100" y="1200" as="targetPoint" />
          </mxGeometry>
        </mxCell>
        <mxCell id="23ZWPcW0NpWNjmYtjL-m-70" value="" style="endArrow=none;html=1;rounded=0;" parent="1" source="23ZWPcW0NpWNjmYtjL-m-68" edge="1">
          <mxGeometry width="50" height="50" relative="1" as="geometry">
            <mxPoint x="50" y="1250" as="sourcePoint" />
            <mxPoint y="1280" as="targetPoint" />
          </mxGeometry>
        </mxCell>
        <mxCell id="23ZWPcW0NpWNjmYtjL-m-71" value="" style="endArrow=none;html=1;rounded=0;" parent="1" source="23ZWPcW0NpWNjmYtjL-m-60" edge="1">
          <mxGeometry width="50" height="50" relative="1" as="geometry">
            <mxPoint x="50" y="1250" as="sourcePoint" />
            <mxPoint y="1200" as="targetPoint" />
          </mxGeometry>
        </mxCell>
        <mxCell id="23ZWPcW0NpWNjmYtjL-m-72" value="" style="endArrow=none;html=1;rounded=0;" parent="1" source="23ZWPcW0NpWNjmYtjL-m-57" target="23ZWPcW0NpWNjmYtjL-m-52" edge="1">
          <mxGeometry width="50" height="50" relative="1" as="geometry">
            <mxPoint x="10" y="800" as="sourcePoint" />
            <mxPoint x="60" y="750" as="targetPoint" />
          </mxGeometry>
        </mxCell>
        <mxCell id="23ZWPcW0NpWNjmYtjL-m-73" value="" style="endArrow=none;html=1;rounded=0;exitX=0.359;exitY=0.67;exitDx=0;exitDy=0;exitPerimeter=0;" parent="1" source="23ZWPcW0NpWNjmYtjL-m-36" edge="1">
          <mxGeometry width="50" height="50" relative="1" as="geometry">
            <mxPoint x="190" y="560" as="sourcePoint" />
            <mxPoint y="640" as="targetPoint" />
          </mxGeometry>
        </mxCell>
        <mxCell id="23ZWPcW0NpWNjmYtjL-m-81" value="A_SHR[0]" style="rounded=0;whiteSpace=wrap;html=1;fontStyle=1" parent="1" vertex="1">
          <mxGeometry x="420" y="290" width="200" height="40" as="geometry" />
        </mxCell>
        <mxCell id="23ZWPcW0NpWNjmYtjL-m-82" value="A_SHR[2]" style="rounded=0;whiteSpace=wrap;html=1;fontStyle=1" parent="1" vertex="1">
          <mxGeometry x="420" y="370" width="200" height="40" as="geometry" />
        </mxCell>
        <mxCell id="23ZWPcW0NpWNjmYtjL-m-83" value="A_SHR[1]" style="rounded=0;whiteSpace=wrap;html=1;fontStyle=1" parent="1" vertex="1">
          <mxGeometry x="420" y="330" width="200" height="40" as="geometry" />
        </mxCell>
        <mxCell id="23ZWPcW0NpWNjmYtjL-m-84" value="A_SHR[N-1]" style="rounded=0;whiteSpace=wrap;html=1;fontStyle=1" parent="1" vertex="1">
          <mxGeometry x="420" y="490" width="200" height="40" as="geometry" />
        </mxCell>
        <mxCell id="23ZWPcW0NpWNjmYtjL-m-85" value="" style="shape=waypoint;sketch=0;fillStyle=solid;size=6;pointerEvents=1;points=[];fillColor=none;resizable=0;rotatable=0;perimeter=centerPerimeter;snapToPoint=1;" parent="1" vertex="1">
          <mxGeometry x="510" y="420" width="20" height="20" as="geometry" />
        </mxCell>
        <mxCell id="23ZWPcW0NpWNjmYtjL-m-86" value="" style="shape=waypoint;sketch=0;fillStyle=solid;size=6;pointerEvents=1;points=[];fillColor=none;resizable=0;rotatable=0;perimeter=centerPerimeter;snapToPoint=1;" parent="1" vertex="1">
          <mxGeometry x="510" y="440" width="20" height="20" as="geometry" />
        </mxCell>
        <mxCell id="23ZWPcW0NpWNjmYtjL-m-87" value="" style="shape=waypoint;sketch=0;fillStyle=solid;size=6;pointerEvents=1;points=[];fillColor=none;resizable=0;rotatable=0;perimeter=centerPerimeter;snapToPoint=1;" parent="1" vertex="1">
          <mxGeometry x="510" y="460" width="20" height="20" as="geometry" />
        </mxCell>
        <mxCell id="23ZWPcW0NpWNjmYtjL-m-88" value="A_CNT_SHR[1]" style="rounded=0;whiteSpace=wrap;html=1;fontStyle=1" parent="1" vertex="1">
          <mxGeometry x="460" y="800" width="120" height="40" as="geometry" />
        </mxCell>
        <mxCell id="23ZWPcW0NpWNjmYtjL-m-89" value="A_CNT_SHR[2]" style="rounded=0;whiteSpace=wrap;html=1;fontStyle=1" parent="1" vertex="1">
          <mxGeometry x="460" y="840" width="120" height="40" as="geometry" />
        </mxCell>
        <mxCell id="23ZWPcW0NpWNjmYtjL-m-90" value="A_CNT_SHR[3]" style="rounded=0;whiteSpace=wrap;html=1;fontStyle=1" parent="1" vertex="1">
          <mxGeometry x="460" y="880" width="120" height="40" as="geometry" />
        </mxCell>
        <mxCell id="23ZWPcW0NpWNjmYtjL-m-91" value="A_CNT_SHR[N-1]" style="rounded=0;whiteSpace=wrap;html=1;fontStyle=1" parent="1" vertex="1">
          <mxGeometry x="460" y="1000" width="120" height="40" as="geometry" />
        </mxCell>
        <mxCell id="23ZWPcW0NpWNjmYtjL-m-92" value="" style="shape=waypoint;sketch=0;fillStyle=solid;size=6;pointerEvents=1;points=[];fillColor=none;resizable=0;rotatable=0;perimeter=centerPerimeter;snapToPoint=1;" parent="1" vertex="1">
          <mxGeometry x="370" y="300" width="20" height="20" as="geometry" />
        </mxCell>
        <mxCell id="23ZWPcW0NpWNjmYtjL-m-93" value="" style="shape=waypoint;sketch=0;fillStyle=solid;size=6;pointerEvents=1;points=[];fillColor=none;resizable=0;rotatable=0;perimeter=centerPerimeter;snapToPoint=1;" parent="1" vertex="1">
          <mxGeometry x="370" y="340" width="20" height="20" as="geometry" />
        </mxCell>
        <mxCell id="23ZWPcW0NpWNjmYtjL-m-94" value="" style="shape=waypoint;sketch=0;fillStyle=solid;size=6;pointerEvents=1;points=[];fillColor=none;resizable=0;rotatable=0;perimeter=centerPerimeter;snapToPoint=1;" parent="1" vertex="1">
          <mxGeometry x="370" y="380" width="20" height="20" as="geometry" />
        </mxCell>
        <mxCell id="23ZWPcW0NpWNjmYtjL-m-95" value="" style="shape=waypoint;sketch=0;fillStyle=solid;size=6;pointerEvents=1;points=[];fillColor=none;resizable=0;rotatable=0;perimeter=centerPerimeter;snapToPoint=1;" parent="1" vertex="1">
          <mxGeometry x="510" y="930" width="20" height="20" as="geometry" />
        </mxCell>
        <mxCell id="23ZWPcW0NpWNjmYtjL-m-96" value="" style="shape=waypoint;sketch=0;fillStyle=solid;size=6;pointerEvents=1;points=[];fillColor=none;resizable=0;rotatable=0;perimeter=centerPerimeter;snapToPoint=1;" parent="1" vertex="1">
          <mxGeometry x="510" y="950" width="20" height="20" as="geometry" />
        </mxCell>
        <mxCell id="23ZWPcW0NpWNjmYtjL-m-97" value="" style="shape=waypoint;sketch=0;fillStyle=solid;size=6;pointerEvents=1;points=[];fillColor=none;resizable=0;rotatable=0;perimeter=centerPerimeter;snapToPoint=1;" parent="1" vertex="1">
          <mxGeometry x="510" y="970" width="20" height="20" as="geometry" />
        </mxCell>
        <mxCell id="23ZWPcW0NpWNjmYtjL-m-98" value="" style="shape=waypoint;sketch=0;fillStyle=solid;size=6;pointerEvents=1;points=[];fillColor=none;resizable=0;rotatable=0;perimeter=centerPerimeter;snapToPoint=1;" parent="1" vertex="1">
          <mxGeometry x="370" y="420" width="20" height="20" as="geometry" />
        </mxCell>
        <mxCell id="23ZWPcW0NpWNjmYtjL-m-99" value="" style="shape=waypoint;sketch=0;fillStyle=solid;size=6;pointerEvents=1;points=[];fillColor=none;resizable=0;rotatable=0;perimeter=centerPerimeter;snapToPoint=1;" parent="1" vertex="1">
          <mxGeometry x="370" y="440" width="20" height="20" as="geometry" />
        </mxCell>
        <mxCell id="23ZWPcW0NpWNjmYtjL-m-100" value="" style="shape=waypoint;sketch=0;fillStyle=solid;size=6;pointerEvents=1;points=[];fillColor=none;resizable=0;rotatable=0;perimeter=centerPerimeter;snapToPoint=1;" parent="1" vertex="1">
          <mxGeometry x="370" y="460" width="20" height="20" as="geometry" />
        </mxCell>
        <mxCell id="23ZWPcW0NpWNjmYtjL-m-101" value="" style="endArrow=none;html=1;rounded=0;exitX=0.663;exitY=0.43;exitDx=0;exitDy=0;exitPerimeter=0;" parent="1" source="23ZWPcW0NpWNjmYtjL-m-93" target="23ZWPcW0NpWNjmYtjL-m-92" edge="1">
          <mxGeometry width="50" height="50" relative="1" as="geometry">
            <mxPoint x="368.44" y="370" as="sourcePoint" />
            <mxPoint x="418.44" y="320" as="targetPoint" />
          </mxGeometry>
        </mxCell>
        <mxCell id="23ZWPcW0NpWNjmYtjL-m-102" value="" style="endArrow=none;html=1;rounded=0;exitX=0.395;exitY=0.523;exitDx=0;exitDy=0;exitPerimeter=0;entryX=0.642;entryY=0.472;entryDx=0;entryDy=0;entryPerimeter=0;" parent="1" source="23ZWPcW0NpWNjmYtjL-m-94" target="23ZWPcW0NpWNjmYtjL-m-93" edge="1">
          <mxGeometry width="50" height="50" relative="1" as="geometry">
            <mxPoint x="368.44" y="370" as="sourcePoint" />
            <mxPoint x="418.44" y="320" as="targetPoint" />
          </mxGeometry>
        </mxCell>
        <mxCell id="23ZWPcW0NpWNjmYtjL-m-103" value="" style="endArrow=classic;html=1;rounded=0;exitX=0.652;exitY=0.575;exitDx=0;exitDy=0;exitPerimeter=0;entryX=0;entryY=0.5;entryDx=0;entryDy=0;" parent="1" source="23ZWPcW0NpWNjmYtjL-m-93" target="23ZWPcW0NpWNjmYtjL-m-83" edge="1">
          <mxGeometry width="50" height="50" relative="1" as="geometry">
            <mxPoint x="370" y="370" as="sourcePoint" />
            <mxPoint x="420" y="320" as="targetPoint" />
          </mxGeometry>
        </mxCell>
        <mxCell id="23ZWPcW0NpWNjmYtjL-m-104" value="" style="endArrow=classic;html=1;rounded=0;entryX=0;entryY=0.5;entryDx=0;entryDy=0;" parent="1" source="23ZWPcW0NpWNjmYtjL-m-94" target="23ZWPcW0NpWNjmYtjL-m-82" edge="1">
          <mxGeometry width="50" height="50" relative="1" as="geometry">
            <mxPoint x="370" y="370" as="sourcePoint" />
            <mxPoint x="420" y="320" as="targetPoint" />
          </mxGeometry>
        </mxCell>
        <mxCell id="23ZWPcW0NpWNjmYtjL-m-105" value="" style="endArrow=classic;html=1;rounded=0;entryX=0;entryY=0.5;entryDx=0;entryDy=0;edgeStyle=orthogonalEdgeStyle;" parent="1" source="23ZWPcW0NpWNjmYtjL-m-106" target="23ZWPcW0NpWNjmYtjL-m-84" edge="1">
          <mxGeometry width="50" height="50" relative="1" as="geometry">
            <mxPoint x="380" y="490" as="sourcePoint" />
            <mxPoint x="420" y="400" as="targetPoint" />
            <Array as="points">
              <mxPoint x="380" y="510" />
            </Array>
          </mxGeometry>
        </mxCell>
        <mxCell id="23ZWPcW0NpWNjmYtjL-m-106" value="" style="shape=waypoint;sketch=0;fillStyle=solid;size=6;pointerEvents=1;points=[];fillColor=none;resizable=0;rotatable=0;perimeter=centerPerimeter;snapToPoint=1;" parent="1" vertex="1">
          <mxGeometry x="370" y="500" width="20" height="20" as="geometry" />
        </mxCell>
        <mxCell id="23ZWPcW0NpWNjmYtjL-m-107" value="" style="endArrow=none;html=1;rounded=0;exitX=0.668;exitY=0.468;exitDx=0;exitDy=0;exitPerimeter=0;" parent="1" source="23ZWPcW0NpWNjmYtjL-m-106" edge="1">
          <mxGeometry width="50" height="50" relative="1" as="geometry">
            <mxPoint x="550" y="540" as="sourcePoint" />
            <mxPoint x="380" y="490" as="targetPoint" />
          </mxGeometry>
        </mxCell>
        <mxCell id="23ZWPcW0NpWNjmYtjL-m-108" value="" style="endArrow=classic;html=1;rounded=0;edgeStyle=orthogonalEdgeStyle;exitDx=0;exitDy=0;exitPerimeter=0;entryX=0;entryY=0.5;entryDx=0;entryDy=0;" parent="1" source="23ZWPcW0NpWNjmYtjL-m-109" target="23ZWPcW0NpWNjmYtjL-m-88" edge="1">
          <mxGeometry width="50" height="50" relative="1" as="geometry">
            <mxPoint x="550" y="770" as="sourcePoint" />
            <mxPoint x="600" y="720" as="targetPoint" />
            <Array as="points">
              <mxPoint x="380" y="820" />
            </Array>
          </mxGeometry>
        </mxCell>
        <mxCell id="23ZWPcW0NpWNjmYtjL-m-109" value="" style="shape=waypoint;sketch=0;fillStyle=solid;size=6;pointerEvents=1;points=[];fillColor=none;resizable=0;rotatable=0;perimeter=centerPerimeter;snapToPoint=1;" parent="1" vertex="1">
          <mxGeometry x="370" y="810" width="20" height="20" as="geometry" />
        </mxCell>
        <mxCell id="23ZWPcW0NpWNjmYtjL-m-110" value="" style="shape=waypoint;sketch=0;fillStyle=solid;size=6;pointerEvents=1;points=[];fillColor=none;resizable=0;rotatable=0;perimeter=centerPerimeter;snapToPoint=1;" parent="1" vertex="1">
          <mxGeometry x="370" y="850" width="20" height="20" as="geometry" />
        </mxCell>
        <mxCell id="23ZWPcW0NpWNjmYtjL-m-111" value="" style="shape=waypoint;sketch=0;fillStyle=solid;size=6;pointerEvents=1;points=[];fillColor=none;resizable=0;rotatable=0;perimeter=centerPerimeter;snapToPoint=1;" parent="1" vertex="1">
          <mxGeometry x="370" y="890" width="20" height="20" as="geometry" />
        </mxCell>
        <mxCell id="23ZWPcW0NpWNjmYtjL-m-112" value="" style="endArrow=none;html=1;rounded=0;exitX=0.521;exitY=0.388;exitDx=0;exitDy=0;exitPerimeter=0;entryX=0.469;entryY=0.671;entryDx=0;entryDy=0;entryPerimeter=0;" parent="1" source="23ZWPcW0NpWNjmYtjL-m-111" target="23ZWPcW0NpWNjmYtjL-m-109" edge="1">
          <mxGeometry width="50" height="50" relative="1" as="geometry">
            <mxPoint x="510" y="880" as="sourcePoint" />
            <mxPoint x="560" y="830" as="targetPoint" />
          </mxGeometry>
        </mxCell>
        <mxCell id="23ZWPcW0NpWNjmYtjL-m-113" value="" style="endArrow=classic;html=1;rounded=0;edgeStyle=orthogonalEdgeStyle;exitDx=0;exitDy=0;exitPerimeter=0;entryX=0;entryY=0.5;entryDx=0;entryDy=0;exitX=0.444;exitY=0.388;" parent="1" source="23ZWPcW0NpWNjmYtjL-m-110" target="23ZWPcW0NpWNjmYtjL-m-89" edge="1">
          <mxGeometry width="50" height="50" relative="1" as="geometry">
            <mxPoint x="390" y="830" as="sourcePoint" />
            <mxPoint x="470" y="830" as="targetPoint" />
            <Array as="points" />
          </mxGeometry>
        </mxCell>
        <mxCell id="23ZWPcW0NpWNjmYtjL-m-114" value="" style="endArrow=classic;html=1;rounded=0;edgeStyle=orthogonalEdgeStyle;exitDx=0;exitDy=0;exitPerimeter=0;entryX=0;entryY=0.5;entryDx=0;entryDy=0;" parent="1" edge="1">
          <mxGeometry width="50" height="50" relative="1" as="geometry">
            <mxPoint x="380" y="899.74" as="sourcePoint" />
            <mxPoint x="460" y="899.74" as="targetPoint" />
            <Array as="points">
              <mxPoint x="380" y="899.74" />
            </Array>
          </mxGeometry>
        </mxCell>
        <mxCell id="23ZWPcW0NpWNjmYtjL-m-115" value="" style="shape=waypoint;sketch=0;fillStyle=solid;size=6;pointerEvents=1;points=[];fillColor=none;resizable=0;rotatable=0;perimeter=centerPerimeter;snapToPoint=1;" parent="1" vertex="1">
          <mxGeometry x="370" y="930" width="20" height="20" as="geometry" />
        </mxCell>
        <mxCell id="23ZWPcW0NpWNjmYtjL-m-116" value="" style="shape=waypoint;sketch=0;fillStyle=solid;size=6;pointerEvents=1;points=[];fillColor=none;resizable=0;rotatable=0;perimeter=centerPerimeter;snapToPoint=1;" parent="1" vertex="1">
          <mxGeometry x="370" y="950" width="20" height="20" as="geometry" />
        </mxCell>
        <mxCell id="23ZWPcW0NpWNjmYtjL-m-117" value="" style="shape=waypoint;sketch=0;fillStyle=solid;size=6;pointerEvents=1;points=[];fillColor=none;resizable=0;rotatable=0;perimeter=centerPerimeter;snapToPoint=1;" parent="1" vertex="1">
          <mxGeometry x="370" y="970" width="20" height="20" as="geometry" />
        </mxCell>
        <mxCell id="23ZWPcW0NpWNjmYtjL-m-118" value="" style="shape=waypoint;sketch=0;fillStyle=solid;size=6;pointerEvents=1;points=[];fillColor=none;resizable=0;rotatable=0;perimeter=centerPerimeter;snapToPoint=1;" parent="1" vertex="1">
          <mxGeometry x="370" y="1010" width="20" height="20" as="geometry" />
        </mxCell>
        <mxCell id="23ZWPcW0NpWNjmYtjL-m-119" value="" style="endArrow=classic;html=1;rounded=0;entryX=0;entryY=0.5;entryDx=0;entryDy=0;" parent="1" source="23ZWPcW0NpWNjmYtjL-m-118" target="23ZWPcW0NpWNjmYtjL-m-91" edge="1">
          <mxGeometry width="50" height="50" relative="1" as="geometry">
            <mxPoint x="430" y="970" as="sourcePoint" />
            <mxPoint x="480" y="920" as="targetPoint" />
          </mxGeometry>
        </mxCell>
        <mxCell id="23ZWPcW0NpWNjmYtjL-m-120" value="" style="endArrow=none;html=1;rounded=0;" parent="1" source="23ZWPcW0NpWNjmYtjL-m-118" edge="1">
          <mxGeometry width="50" height="50" relative="1" as="geometry">
            <mxPoint x="430" y="970" as="sourcePoint" />
            <mxPoint x="380" y="1000" as="targetPoint" />
          </mxGeometry>
        </mxCell>
        <mxCell id="23ZWPcW0NpWNjmYtjL-m-121" value="" style="endArrow=none;html=1;rounded=0;" parent="1" source="23ZWPcW0NpWNjmYtjL-m-111" edge="1">
          <mxGeometry width="50" height="50" relative="1" as="geometry">
            <mxPoint x="430" y="970" as="sourcePoint" />
            <mxPoint x="380" y="920" as="targetPoint" />
          </mxGeometry>
        </mxCell>
        <mxCell id="23ZWPcW0NpWNjmYtjL-m-122" value="" style="endArrow=none;html=1;rounded=0;" parent="1" source="23ZWPcW0NpWNjmYtjL-m-109" target="23ZWPcW0NpWNjmYtjL-m-106" edge="1">
          <mxGeometry width="50" height="50" relative="1" as="geometry">
            <mxPoint x="390" y="570" as="sourcePoint" />
            <mxPoint x="440" y="520" as="targetPoint" />
          </mxGeometry>
        </mxCell>
        <mxCell id="23ZWPcW0NpWNjmYtjL-m-123" value="" style="endArrow=none;html=1;rounded=0;exitX=0.359;exitY=0.67;exitDx=0;exitDy=0;exitPerimeter=0;" parent="1" source="23ZWPcW0NpWNjmYtjL-m-94" edge="1">
          <mxGeometry width="50" height="50" relative="1" as="geometry">
            <mxPoint x="570" y="330" as="sourcePoint" />
            <mxPoint x="380" y="410" as="targetPoint" />
          </mxGeometry>
        </mxCell>
      </root>
    </mxGraphModel>
  </diagram>
  <diagram id="tz9Jy-yNyOtTA9mRJTvH" name="Page-2">
<<<<<<< HEAD
    <mxGraphModel dx="3936" dy="2478" grid="1" gridSize="10" guides="1" tooltips="1" connect="1" arrows="1" fold="1" page="1" pageScale="1" pageWidth="827" pageHeight="1169" math="0" shadow="0">
      <root>
        <mxCell id="0" />
        <mxCell id="1" parent="0" />
        <mxCell id="xnQYNS8LpG-LKZzHwpVI-16" value="" style="endArrow=none;html=1;rounded=0;entryX=0.6;entryY=0.7;entryDx=0;entryDy=0;entryPerimeter=0;exitX=0.275;exitY=0.325;exitDx=0;exitDy=0;exitPerimeter=0;" edge="1" parent="1" source="xnQYNS8LpG-LKZzHwpVI-14" target="xnQYNS8LpG-LKZzHwpVI-4">
          <mxGeometry width="50" height="50" relative="1" as="geometry">
            <mxPoint x="100" y="400" as="sourcePoint" />
            <mxPoint x="150" y="350" as="targetPoint" />
            <Array as="points">
              <mxPoint x="-20" y="180" />
            </Array>
          </mxGeometry>
        </mxCell>
        <mxCell id="yqO04anQ9EkwRPlKjCKc-1" value="VECTOR_CONCATENATOR" style="rounded=0;whiteSpace=wrap;html=1;fontStyle=1" parent="1" vertex="1">
          <mxGeometry x="400" y="-110" width="240" height="60" as="geometry" />
        </mxCell>
        <mxCell id="yqO04anQ9EkwRPlKjCKc-2" value="" style="shape=flexArrow;endArrow=classic;html=1;rounded=0;strokeColor=none;fillColor=#A3A3A3;exitX=0.25;exitY=1;exitDx=0;exitDy=0;" parent="1" source="yqO04anQ9EkwRPlKjCKc-1" edge="1">
=======
    <mxGraphModel dx="1815" dy="1761" grid="1" gridSize="10" guides="1" tooltips="1" connect="1" arrows="1" fold="1" page="1" pageScale="1" pageWidth="827" pageHeight="1169" math="0" shadow="0">
      <root>
        <mxCell id="0" />
        <mxCell id="1" parent="0" />
        <mxCell id="yqO04anQ9EkwRPlKjCKc-1" value="VECTOR_CONCATENATOR" style="rounded=0;whiteSpace=wrap;html=1;fontStyle=1" vertex="1" parent="1">
          <mxGeometry x="400" y="-110" width="240" height="60" as="geometry" />
        </mxCell>
        <mxCell id="yqO04anQ9EkwRPlKjCKc-2" value="" style="shape=flexArrow;endArrow=classic;html=1;rounded=0;strokeColor=none;fillColor=#A3A3A3;exitX=0.25;exitY=1;exitDx=0;exitDy=0;" edge="1" parent="1" source="yqO04anQ9EkwRPlKjCKc-1">
>>>>>>> 58f25b2019dedea0701d8c639c47b384e1c0a5da
          <mxGeometry width="50" height="50" relative="1" as="geometry">
            <mxPoint x="350" y="160" as="sourcePoint" />
            <mxPoint x="460" y="50" as="targetPoint" />
          </mxGeometry>
        </mxCell>
<<<<<<< HEAD
        <mxCell id="yqO04anQ9EkwRPlKjCKc-4" value="" style="endArrow=classic;html=1;rounded=0;exitX=0.75;exitY=1;exitDx=0;exitDy=0;" parent="1" source="yqO04anQ9EkwRPlKjCKc-1" edge="1">
=======
        <mxCell id="yqO04anQ9EkwRPlKjCKc-4" value="" style="endArrow=classic;html=1;rounded=0;exitX=0.75;exitY=1;exitDx=0;exitDy=0;" edge="1" parent="1" source="yqO04anQ9EkwRPlKjCKc-1">
>>>>>>> 58f25b2019dedea0701d8c639c47b384e1c0a5da
          <mxGeometry width="50" height="50" relative="1" as="geometry">
            <mxPoint x="350" y="160" as="sourcePoint" />
            <mxPoint x="580" y="50" as="targetPoint" />
          </mxGeometry>
        </mxCell>
<<<<<<< HEAD
        <mxCell id="yqO04anQ9EkwRPlKjCKc-6" value="CNT1&lt;br&gt;&lt;span style=&quot;font-weight: normal;&quot;&gt;(pre_stage_unit)&lt;/span&gt;" style="rounded=0;whiteSpace=wrap;html=1;fontStyle=1" parent="1" vertex="1">
          <mxGeometry x="400" y="50" width="240" height="60" as="geometry" />
        </mxCell>
        <mxCell id="yqO04anQ9EkwRPlKjCKc-10" value="DELAY" style="rounded=0;whiteSpace=wrap;html=1;fontStyle=1;rotation=-90;" parent="1" vertex="1">
          <mxGeometry x="-190" y="-4.42" width="223.13" height="26.28" as="geometry" />
        </mxCell>
        <mxCell id="yqO04anQ9EkwRPlKjCKc-11" value="" style="endArrow=classic;html=1;rounded=0;entryX=1;entryY=0.5;entryDx=0;entryDy=0;" parent="1" target="yqO04anQ9EkwRPlKjCKc-10" edge="1">
=======
        <mxCell id="yqO04anQ9EkwRPlKjCKc-6" value="CNT1&lt;br&gt;&lt;span style=&quot;font-weight: normal;&quot;&gt;(pre_stage_unit)&lt;/span&gt;" style="rounded=0;whiteSpace=wrap;html=1;fontStyle=1" vertex="1" parent="1">
          <mxGeometry x="400" y="50" width="240" height="60" as="geometry" />
        </mxCell>
        <mxCell id="yqO04anQ9EkwRPlKjCKc-10" value="DELAY" style="rounded=0;whiteSpace=wrap;html=1;fontStyle=1;rotation=-90;" vertex="1" parent="1">
          <mxGeometry x="-190" y="-4.42" width="223.13" height="26.28" as="geometry" />
        </mxCell>
        <mxCell id="yqO04anQ9EkwRPlKjCKc-11" value="" style="endArrow=classic;html=1;rounded=0;entryX=1;entryY=0.5;entryDx=0;entryDy=0;" edge="1" parent="1" target="yqO04anQ9EkwRPlKjCKc-10">
>>>>>>> 58f25b2019dedea0701d8c639c47b384e1c0a5da
          <mxGeometry width="50" height="50" relative="1" as="geometry">
            <mxPoint x="-78.14" y="-210" as="sourcePoint" />
            <mxPoint x="74.99999999999999" y="0.28000000000000114" as="targetPoint" />
          </mxGeometry>
        </mxCell>
<<<<<<< HEAD
        <mxCell id="yqO04anQ9EkwRPlKjCKc-12" value="i_B_or_A" style="text;html=1;strokeColor=none;fillColor=none;align=center;verticalAlign=middle;whiteSpace=wrap;rounded=0;rotation=-90;fontStyle=1" parent="1" vertex="1">
          <mxGeometry x="-125.00000000000001" y="-170" width="60" height="30" as="geometry" />
        </mxCell>
        <mxCell id="yqO04anQ9EkwRPlKjCKc-15" value="" style="shape=flexArrow;endArrow=classic;html=1;rounded=0;strokeColor=none;fillColor=#A3A3A3;exitX=0.25;exitY=1;exitDx=0;exitDy=0;" parent="1" edge="1">
=======
        <mxCell id="yqO04anQ9EkwRPlKjCKc-12" value="i_B_or_A" style="text;html=1;strokeColor=none;fillColor=none;align=center;verticalAlign=middle;whiteSpace=wrap;rounded=0;rotation=-90;fontStyle=1" vertex="1" parent="1">
          <mxGeometry x="-125.00000000000001" y="-170" width="60" height="30" as="geometry" />
        </mxCell>
        <mxCell id="yqO04anQ9EkwRPlKjCKc-15" value="" style="shape=flexArrow;endArrow=classic;html=1;rounded=0;strokeColor=none;fillColor=#A3A3A3;exitX=0.25;exitY=1;exitDx=0;exitDy=0;" edge="1" parent="1">
>>>>>>> 58f25b2019dedea0701d8c639c47b384e1c0a5da
          <mxGeometry width="50" height="50" relative="1" as="geometry">
            <mxPoint x="460" y="-210" as="sourcePoint" />
            <mxPoint x="460" y="-110" as="targetPoint" />
          </mxGeometry>
        </mxCell>
<<<<<<< HEAD
        <mxCell id="yqO04anQ9EkwRPlKjCKc-17" value="" style="endArrow=classic;html=1;rounded=0;entryX=0.75;entryY=0;entryDx=0;entryDy=0;" parent="1" target="yqO04anQ9EkwRPlKjCKc-1" edge="1">
=======
        <mxCell id="yqO04anQ9EkwRPlKjCKc-17" value="" style="endArrow=classic;html=1;rounded=0;entryX=0.75;entryY=0;entryDx=0;entryDy=0;" edge="1" parent="1" target="yqO04anQ9EkwRPlKjCKc-1">
>>>>>>> 58f25b2019dedea0701d8c639c47b384e1c0a5da
          <mxGeometry width="50" height="50" relative="1" as="geometry">
            <mxPoint x="580" y="-210" as="sourcePoint" />
            <mxPoint x="520" y="40" as="targetPoint" />
          </mxGeometry>
        </mxCell>
<<<<<<< HEAD
        <mxCell id="yqO04anQ9EkwRPlKjCKc-18" value="&lt;b&gt;i_Vector&lt;/b&gt;" style="text;html=1;align=center;verticalAlign=middle;resizable=0;points=[];autosize=1;strokeColor=none;fillColor=none;rotation=-90;" parent="1" vertex="1">
          <mxGeometry x="405" y="-190" width="70" height="30" as="geometry" />
        </mxCell>
        <mxCell id="yqO04anQ9EkwRPlKjCKc-19" value="&lt;b&gt;i_Valid&lt;/b&gt;" style="text;html=1;align=center;verticalAlign=middle;resizable=0;points=[];autosize=1;strokeColor=none;fillColor=none;rotation=-90;" parent="1" vertex="1">
          <mxGeometry x="535" y="-190" width="60" height="30" as="geometry" />
        </mxCell>
        <mxCell id="yqO04anQ9EkwRPlKjCKc-20" value="&lt;b&gt;w_Valid&lt;/b&gt;" style="text;html=1;align=center;verticalAlign=middle;resizable=0;points=[];autosize=1;strokeColor=none;fillColor=none;rotation=-90;" parent="1" vertex="1">
          <mxGeometry x="530" y="-20" width="70" height="30" as="geometry" />
        </mxCell>
        <mxCell id="yqO04anQ9EkwRPlKjCKc-22" value="&lt;b&gt;w_SubVector&lt;/b&gt;" style="text;html=1;align=center;verticalAlign=middle;resizable=0;points=[];autosize=1;strokeColor=none;fillColor=none;rotation=-90;" parent="1" vertex="1">
          <mxGeometry x="380" y="-20" width="100" height="30" as="geometry" />
        </mxCell>
        <mxCell id="yqO04anQ9EkwRPlKjCKc-23" value="&lt;b&gt;w_SubVector&lt;/b&gt;" style="text;html=1;align=center;verticalAlign=middle;resizable=0;points=[];autosize=1;strokeColor=none;fillColor=none;rotation=-90;" parent="1" vertex="1">
          <mxGeometry x="375" y="150" width="100" height="30" as="geometry" />
        </mxCell>
        <mxCell id="yqO04anQ9EkwRPlKjCKc-24" value="" style="shape=flexArrow;endArrow=classic;html=1;rounded=0;strokeColor=none;fillColor=#A3A3A3;exitX=0.25;exitY=1;exitDx=0;exitDy=0;entryX=0.5;entryY=0;entryDx=0;entryDy=0;" parent="1" source="yqO04anQ9EkwRPlKjCKc-6" target="yqO04anQ9EkwRPlKjCKc-28" edge="1">
=======
        <mxCell id="yqO04anQ9EkwRPlKjCKc-18" value="&lt;b&gt;i_Vector&lt;/b&gt;" style="text;html=1;align=center;verticalAlign=middle;resizable=0;points=[];autosize=1;strokeColor=none;fillColor=none;rotation=-90;" vertex="1" parent="1">
          <mxGeometry x="405" y="-190" width="70" height="30" as="geometry" />
        </mxCell>
        <mxCell id="yqO04anQ9EkwRPlKjCKc-19" value="&lt;b&gt;i_Valid&lt;/b&gt;" style="text;html=1;align=center;verticalAlign=middle;resizable=0;points=[];autosize=1;strokeColor=none;fillColor=none;rotation=-90;" vertex="1" parent="1">
          <mxGeometry x="535" y="-190" width="60" height="30" as="geometry" />
        </mxCell>
        <mxCell id="yqO04anQ9EkwRPlKjCKc-20" value="&lt;b&gt;w_Valid&lt;/b&gt;" style="text;html=1;align=center;verticalAlign=middle;resizable=0;points=[];autosize=1;strokeColor=none;fillColor=none;rotation=-90;" vertex="1" parent="1">
          <mxGeometry x="530" y="-20" width="70" height="30" as="geometry" />
        </mxCell>
        <mxCell id="yqO04anQ9EkwRPlKjCKc-22" value="&lt;b&gt;w_SubVector&lt;/b&gt;" style="text;html=1;align=center;verticalAlign=middle;resizable=0;points=[];autosize=1;strokeColor=none;fillColor=none;rotation=-90;" vertex="1" parent="1">
          <mxGeometry x="380" y="-20" width="100" height="30" as="geometry" />
        </mxCell>
        <mxCell id="yqO04anQ9EkwRPlKjCKc-23" value="&lt;b&gt;w_SubVector&lt;/b&gt;" style="text;html=1;align=center;verticalAlign=middle;resizable=0;points=[];autosize=1;strokeColor=none;fillColor=none;rotation=-90;" vertex="1" parent="1">
          <mxGeometry x="375" y="150" width="100" height="30" as="geometry" />
        </mxCell>
        <mxCell id="yqO04anQ9EkwRPlKjCKc-24" value="" style="shape=flexArrow;endArrow=classic;html=1;rounded=0;strokeColor=none;fillColor=#A3A3A3;exitX=0.25;exitY=1;exitDx=0;exitDy=0;entryX=0.5;entryY=0;entryDx=0;entryDy=0;" edge="1" parent="1" source="yqO04anQ9EkwRPlKjCKc-6" target="yqO04anQ9EkwRPlKjCKc-28">
>>>>>>> 58f25b2019dedea0701d8c639c47b384e1c0a5da
          <mxGeometry width="50" height="50" relative="1" as="geometry">
            <mxPoint x="470" y="150" as="sourcePoint" />
            <mxPoint x="460" y="210" as="targetPoint" />
            <Array as="points">
              <mxPoint x="460" y="280" />
              <mxPoint x="100" y="280" />
            </Array>
          </mxGeometry>
        </mxCell>
<<<<<<< HEAD
        <mxCell id="yqO04anQ9EkwRPlKjCKc-25" value="&lt;b&gt;w_NewCnt&lt;/b&gt;" style="text;html=1;align=center;verticalAlign=middle;resizable=0;points=[];autosize=1;strokeColor=none;fillColor=none;rotation=0;" parent="1" vertex="1">
          <mxGeometry x="290" y="50.000000000000014" width="80" height="30" as="geometry" />
        </mxCell>
        <mxCell id="yqO04anQ9EkwRPlKjCKc-26" value="" style="shape=flexArrow;endArrow=classic;html=1;rounded=0;strokeColor=none;fillColor=#A3A3A3;exitX=0.5;exitY=1;exitDx=0;exitDy=0;entryX=0.5;entryY=0;entryDx=0;entryDy=0;" parent="1" source="yqO04anQ9EkwRPlKjCKc-6" target="yqO04anQ9EkwRPlKjCKc-29" edge="1">
=======
        <mxCell id="yqO04anQ9EkwRPlKjCKc-25" value="&lt;b&gt;w_NewCnt&lt;/b&gt;" style="text;html=1;align=center;verticalAlign=middle;resizable=0;points=[];autosize=1;strokeColor=none;fillColor=none;rotation=0;" vertex="1" parent="1">
          <mxGeometry x="290" y="50.000000000000014" width="80" height="30" as="geometry" />
        </mxCell>
        <mxCell id="yqO04anQ9EkwRPlKjCKc-26" value="" style="shape=flexArrow;endArrow=classic;html=1;rounded=0;strokeColor=none;fillColor=#A3A3A3;exitX=0.5;exitY=1;exitDx=0;exitDy=0;entryX=0.5;entryY=0;entryDx=0;entryDy=0;" edge="1" parent="1" source="yqO04anQ9EkwRPlKjCKc-6" target="yqO04anQ9EkwRPlKjCKc-29">
>>>>>>> 58f25b2019dedea0701d8c639c47b384e1c0a5da
          <mxGeometry width="50" height="50" relative="1" as="geometry">
            <mxPoint x="510" y="115" as="sourcePoint" />
            <mxPoint x="520" y="210" as="targetPoint" />
            <Array as="points">
              <mxPoint x="520" y="320" />
              <mxPoint x="260" y="320" />
            </Array>
          </mxGeometry>
        </mxCell>
<<<<<<< HEAD
        <mxCell id="yqO04anQ9EkwRPlKjCKc-27" value="&lt;b&gt;w_Cnt&lt;/b&gt;" style="text;html=1;align=center;verticalAlign=middle;resizable=0;points=[];autosize=1;strokeColor=none;fillColor=none;rotation=-90;" parent="1" vertex="1">
          <mxGeometry x="470" y="138" width="60" height="30" as="geometry" />
        </mxCell>
        <mxCell id="yqO04anQ9EkwRPlKjCKc-28" value="&lt;b&gt;VEC_B_SHR[0]&lt;/b&gt;" style="rounded=0;whiteSpace=wrap;html=1;" parent="1" vertex="1">
          <mxGeometry y="480" width="200" height="60" as="geometry" />
        </mxCell>
        <mxCell id="yqO04anQ9EkwRPlKjCKc-29" value="&lt;b&gt;CNT_B_SHR[0]&lt;/b&gt;" style="rounded=0;whiteSpace=wrap;html=1;" parent="1" vertex="1">
          <mxGeometry x="200" y="730" width="120" height="60" as="geometry" />
        </mxCell>
        <mxCell id="yqO04anQ9EkwRPlKjCKc-31" value="" style="shape=waypoint;sketch=0;fillStyle=solid;size=6;pointerEvents=1;points=[];fillColor=none;resizable=0;rotatable=0;perimeter=centerPerimeter;snapToPoint=1;" parent="1" vertex="1">
          <mxGeometry x="90" y="930" width="20" height="20" as="geometry" />
        </mxCell>
        <mxCell id="yqO04anQ9EkwRPlKjCKc-32" value="" style="shape=waypoint;sketch=0;fillStyle=solid;size=6;pointerEvents=1;points=[];fillColor=none;resizable=0;rotatable=0;perimeter=centerPerimeter;snapToPoint=1;" parent="1" vertex="1">
          <mxGeometry x="90" y="960" width="20" height="20" as="geometry" />
        </mxCell>
        <mxCell id="yqO04anQ9EkwRPlKjCKc-33" value="" style="shape=waypoint;sketch=0;fillStyle=solid;size=6;pointerEvents=1;points=[];fillColor=none;resizable=0;rotatable=0;perimeter=centerPerimeter;snapToPoint=1;" parent="1" vertex="1">
          <mxGeometry x="90" y="990" width="20" height="20" as="geometry" />
        </mxCell>
        <mxCell id="yqO04anQ9EkwRPlKjCKc-38" value="" style="shape=waypoint;sketch=0;fillStyle=solid;size=6;pointerEvents=1;points=[];fillColor=none;resizable=0;rotatable=0;perimeter=centerPerimeter;snapToPoint=1;" parent="1" vertex="1">
          <mxGeometry x="250" y="930" width="20" height="20" as="geometry" />
        </mxCell>
        <mxCell id="yqO04anQ9EkwRPlKjCKc-39" value="" style="shape=waypoint;sketch=0;fillStyle=solid;size=6;pointerEvents=1;points=[];fillColor=none;resizable=0;rotatable=0;perimeter=centerPerimeter;snapToPoint=1;" parent="1" vertex="1">
          <mxGeometry x="250" y="960" width="20" height="20" as="geometry" />
        </mxCell>
        <mxCell id="yqO04anQ9EkwRPlKjCKc-40" value="" style="shape=waypoint;sketch=0;fillStyle=solid;size=6;pointerEvents=1;points=[];fillColor=none;resizable=0;rotatable=0;perimeter=centerPerimeter;snapToPoint=1;" parent="1" vertex="1">
          <mxGeometry x="250" y="990" width="20" height="20" as="geometry" />
        </mxCell>
        <mxCell id="yqO04anQ9EkwRPlKjCKc-43" value="&lt;b&gt;VEC_A_SHR[0]&lt;/b&gt;" style="rounded=0;whiteSpace=wrap;html=1;" parent="1" vertex="1">
          <mxGeometry x="360" y="370" width="200" height="60" as="geometry" />
        </mxCell>
        <mxCell id="yqO04anQ9EkwRPlKjCKc-44" value="&lt;b&gt;CNT_A_SHR[0]&lt;/b&gt;" style="rounded=0;whiteSpace=wrap;html=1;" parent="1" vertex="1">
          <mxGeometry x="560" y="650" width="120" height="60" as="geometry" />
        </mxCell>
        <mxCell id="yqO04anQ9EkwRPlKjCKc-46" value="" style="shape=waypoint;sketch=0;fillStyle=solid;size=6;pointerEvents=1;points=[];fillColor=none;resizable=0;rotatable=0;perimeter=centerPerimeter;snapToPoint=1;" parent="1" vertex="1">
          <mxGeometry x="450" y="930" width="20" height="20" as="geometry" />
        </mxCell>
        <mxCell id="yqO04anQ9EkwRPlKjCKc-47" value="" style="shape=waypoint;sketch=0;fillStyle=solid;size=6;pointerEvents=1;points=[];fillColor=none;resizable=0;rotatable=0;perimeter=centerPerimeter;snapToPoint=1;" parent="1" vertex="1">
          <mxGeometry x="450" y="960" width="20" height="20" as="geometry" />
        </mxCell>
        <mxCell id="yqO04anQ9EkwRPlKjCKc-48" value="" style="shape=waypoint;sketch=0;fillStyle=solid;size=6;pointerEvents=1;points=[];fillColor=none;resizable=0;rotatable=0;perimeter=centerPerimeter;snapToPoint=1;" parent="1" vertex="1">
          <mxGeometry x="450" y="990" width="20" height="20" as="geometry" />
        </mxCell>
        <mxCell id="yqO04anQ9EkwRPlKjCKc-52" value="" style="shape=waypoint;sketch=0;fillStyle=solid;size=6;pointerEvents=1;points=[];fillColor=none;resizable=0;rotatable=0;perimeter=centerPerimeter;snapToPoint=1;" parent="1" vertex="1">
          <mxGeometry x="855" y="930" width="20" height="20" as="geometry" />
        </mxCell>
        <mxCell id="yqO04anQ9EkwRPlKjCKc-53" value="" style="shape=waypoint;sketch=0;fillStyle=solid;size=6;pointerEvents=1;points=[];fillColor=none;resizable=0;rotatable=0;perimeter=centerPerimeter;snapToPoint=1;" parent="1" vertex="1">
          <mxGeometry x="855" y="960" width="20" height="20" as="geometry" />
        </mxCell>
        <mxCell id="yqO04anQ9EkwRPlKjCKc-54" value="" style="shape=waypoint;sketch=0;fillStyle=solid;size=6;pointerEvents=1;points=[];fillColor=none;resizable=0;rotatable=0;perimeter=centerPerimeter;snapToPoint=1;" parent="1" vertex="1">
          <mxGeometry x="855" y="990" width="20" height="20" as="geometry" />
        </mxCell>
        <mxCell id="yqO04anQ9EkwRPlKjCKc-58" value="" style="shape=flexArrow;endArrow=classic;html=1;rounded=0;fillColor=#A3A3A3;gradientColor=none;strokeColor=none;entryX=0.5;entryY=0;entryDx=0;entryDy=0;" parent="1" source="yqO04anQ9EkwRPlKjCKc-82" target="yqO04anQ9EkwRPlKjCKc-43" edge="1">
=======
        <mxCell id="yqO04anQ9EkwRPlKjCKc-27" value="&lt;b&gt;w_Cnt&lt;/b&gt;" style="text;html=1;align=center;verticalAlign=middle;resizable=0;points=[];autosize=1;strokeColor=none;fillColor=none;rotation=-90;" vertex="1" parent="1">
          <mxGeometry x="470" y="138" width="60" height="30" as="geometry" />
        </mxCell>
        <mxCell id="yqO04anQ9EkwRPlKjCKc-28" value="&lt;b&gt;VEC_B_SHR[0]&lt;/b&gt;" style="rounded=0;whiteSpace=wrap;html=1;" vertex="1" parent="1">
          <mxGeometry y="480" width="200" height="60" as="geometry" />
        </mxCell>
        <mxCell id="yqO04anQ9EkwRPlKjCKc-29" value="&lt;b&gt;CNT_B_SHR[0]&lt;/b&gt;" style="rounded=0;whiteSpace=wrap;html=1;" vertex="1" parent="1">
          <mxGeometry x="200" y="730" width="120" height="60" as="geometry" />
        </mxCell>
        <mxCell id="yqO04anQ9EkwRPlKjCKc-31" value="" style="shape=waypoint;sketch=0;fillStyle=solid;size=6;pointerEvents=1;points=[];fillColor=none;resizable=0;rotatable=0;perimeter=centerPerimeter;snapToPoint=1;" vertex="1" parent="1">
          <mxGeometry x="90" y="930" width="20" height="20" as="geometry" />
        </mxCell>
        <mxCell id="yqO04anQ9EkwRPlKjCKc-32" value="" style="shape=waypoint;sketch=0;fillStyle=solid;size=6;pointerEvents=1;points=[];fillColor=none;resizable=0;rotatable=0;perimeter=centerPerimeter;snapToPoint=1;" vertex="1" parent="1">
          <mxGeometry x="90" y="960" width="20" height="20" as="geometry" />
        </mxCell>
        <mxCell id="yqO04anQ9EkwRPlKjCKc-33" value="" style="shape=waypoint;sketch=0;fillStyle=solid;size=6;pointerEvents=1;points=[];fillColor=none;resizable=0;rotatable=0;perimeter=centerPerimeter;snapToPoint=1;" vertex="1" parent="1">
          <mxGeometry x="90" y="990" width="20" height="20" as="geometry" />
        </mxCell>
        <mxCell id="yqO04anQ9EkwRPlKjCKc-38" value="" style="shape=waypoint;sketch=0;fillStyle=solid;size=6;pointerEvents=1;points=[];fillColor=none;resizable=0;rotatable=0;perimeter=centerPerimeter;snapToPoint=1;" vertex="1" parent="1">
          <mxGeometry x="250" y="930" width="20" height="20" as="geometry" />
        </mxCell>
        <mxCell id="yqO04anQ9EkwRPlKjCKc-39" value="" style="shape=waypoint;sketch=0;fillStyle=solid;size=6;pointerEvents=1;points=[];fillColor=none;resizable=0;rotatable=0;perimeter=centerPerimeter;snapToPoint=1;" vertex="1" parent="1">
          <mxGeometry x="250" y="960" width="20" height="20" as="geometry" />
        </mxCell>
        <mxCell id="yqO04anQ9EkwRPlKjCKc-40" value="" style="shape=waypoint;sketch=0;fillStyle=solid;size=6;pointerEvents=1;points=[];fillColor=none;resizable=0;rotatable=0;perimeter=centerPerimeter;snapToPoint=1;" vertex="1" parent="1">
          <mxGeometry x="250" y="990" width="20" height="20" as="geometry" />
        </mxCell>
        <mxCell id="yqO04anQ9EkwRPlKjCKc-43" value="&lt;b&gt;VEC_A_SHR[0]&lt;/b&gt;" style="rounded=0;whiteSpace=wrap;html=1;" vertex="1" parent="1">
          <mxGeometry x="360" y="370" width="200" height="60" as="geometry" />
        </mxCell>
        <mxCell id="yqO04anQ9EkwRPlKjCKc-44" value="&lt;b&gt;CNT_A_SHR[0]&lt;/b&gt;" style="rounded=0;whiteSpace=wrap;html=1;" vertex="1" parent="1">
          <mxGeometry x="560" y="650" width="120" height="60" as="geometry" />
        </mxCell>
        <mxCell id="yqO04anQ9EkwRPlKjCKc-46" value="" style="shape=waypoint;sketch=0;fillStyle=solid;size=6;pointerEvents=1;points=[];fillColor=none;resizable=0;rotatable=0;perimeter=centerPerimeter;snapToPoint=1;" vertex="1" parent="1">
          <mxGeometry x="450" y="930" width="20" height="20" as="geometry" />
        </mxCell>
        <mxCell id="yqO04anQ9EkwRPlKjCKc-47" value="" style="shape=waypoint;sketch=0;fillStyle=solid;size=6;pointerEvents=1;points=[];fillColor=none;resizable=0;rotatable=0;perimeter=centerPerimeter;snapToPoint=1;" vertex="1" parent="1">
          <mxGeometry x="450" y="960" width="20" height="20" as="geometry" />
        </mxCell>
        <mxCell id="yqO04anQ9EkwRPlKjCKc-48" value="" style="shape=waypoint;sketch=0;fillStyle=solid;size=6;pointerEvents=1;points=[];fillColor=none;resizable=0;rotatable=0;perimeter=centerPerimeter;snapToPoint=1;" vertex="1" parent="1">
          <mxGeometry x="450" y="990" width="20" height="20" as="geometry" />
        </mxCell>
        <mxCell id="yqO04anQ9EkwRPlKjCKc-52" value="" style="shape=waypoint;sketch=0;fillStyle=solid;size=6;pointerEvents=1;points=[];fillColor=none;resizable=0;rotatable=0;perimeter=centerPerimeter;snapToPoint=1;" vertex="1" parent="1">
          <mxGeometry x="855" y="930" width="20" height="20" as="geometry" />
        </mxCell>
        <mxCell id="yqO04anQ9EkwRPlKjCKc-53" value="" style="shape=waypoint;sketch=0;fillStyle=solid;size=6;pointerEvents=1;points=[];fillColor=none;resizable=0;rotatable=0;perimeter=centerPerimeter;snapToPoint=1;" vertex="1" parent="1">
          <mxGeometry x="855" y="960" width="20" height="20" as="geometry" />
        </mxCell>
        <mxCell id="yqO04anQ9EkwRPlKjCKc-54" value="" style="shape=waypoint;sketch=0;fillStyle=solid;size=6;pointerEvents=1;points=[];fillColor=none;resizable=0;rotatable=0;perimeter=centerPerimeter;snapToPoint=1;" vertex="1" parent="1">
          <mxGeometry x="855" y="990" width="20" height="20" as="geometry" />
        </mxCell>
        <mxCell id="yqO04anQ9EkwRPlKjCKc-58" value="" style="shape=flexArrow;endArrow=classic;html=1;rounded=0;fillColor=#A3A3A3;gradientColor=none;strokeColor=none;entryX=0.5;entryY=0;entryDx=0;entryDy=0;" edge="1" parent="1" source="yqO04anQ9EkwRPlKjCKc-82" target="yqO04anQ9EkwRPlKjCKc-43">
>>>>>>> 58f25b2019dedea0701d8c639c47b384e1c0a5da
          <mxGeometry width="50" height="50" relative="1" as="geometry">
            <mxPoint x="460" y="280" as="sourcePoint" />
            <mxPoint x="410" y="390" as="targetPoint" />
          </mxGeometry>
        </mxCell>
<<<<<<< HEAD
        <mxCell id="yqO04anQ9EkwRPlKjCKc-59" value="" style="shape=flexArrow;endArrow=classic;html=1;rounded=0;fillColor=#A3A3A3;gradientColor=none;strokeColor=none;entryX=0.5;entryY=0;entryDx=0;entryDy=0;" parent="1" source="yqO04anQ9EkwRPlKjCKc-84" target="yqO04anQ9EkwRPlKjCKc-44" edge="1">
=======
        <mxCell id="yqO04anQ9EkwRPlKjCKc-59" value="" style="shape=flexArrow;endArrow=classic;html=1;rounded=0;fillColor=#A3A3A3;gradientColor=none;strokeColor=none;entryX=0.5;entryY=0;entryDx=0;entryDy=0;" edge="1" parent="1" source="yqO04anQ9EkwRPlKjCKc-84" target="yqO04anQ9EkwRPlKjCKc-44">
>>>>>>> 58f25b2019dedea0701d8c639c47b384e1c0a5da
          <mxGeometry width="50" height="50" relative="1" as="geometry">
            <mxPoint x="520" y="320" as="sourcePoint" />
            <mxPoint x="470" y="380" as="targetPoint" />
            <Array as="points">
              <mxPoint x="620" y="320" />
            </Array>
          </mxGeometry>
        </mxCell>
<<<<<<< HEAD
        <mxCell id="yqO04anQ9EkwRPlKjCKc-60" value="" style="shape=flexArrow;endArrow=classic;html=1;rounded=0;strokeColor=none;fillColor=#A3A3A3;exitX=0.5;exitY=1;exitDx=0;exitDy=0;" parent="1" source="yqO04anQ9EkwRPlKjCKc-28" edge="1">
=======
        <mxCell id="yqO04anQ9EkwRPlKjCKc-60" value="" style="shape=flexArrow;endArrow=classic;html=1;rounded=0;strokeColor=none;fillColor=#A3A3A3;exitX=0.5;exitY=1;exitDx=0;exitDy=0;" edge="1" parent="1" source="yqO04anQ9EkwRPlKjCKc-28">
>>>>>>> 58f25b2019dedea0701d8c639c47b384e1c0a5da
          <mxGeometry width="50" height="50" relative="1" as="geometry">
            <mxPoint x="100" y="660" as="sourcePoint" />
            <mxPoint x="100" y="910" as="targetPoint" />
          </mxGeometry>
        </mxCell>
<<<<<<< HEAD
        <mxCell id="yqO04anQ9EkwRPlKjCKc-61" value="" style="shape=flexArrow;endArrow=classic;html=1;rounded=0;strokeColor=none;fillColor=#A3A3A3;exitX=0.5;exitY=1;exitDx=0;exitDy=0;" parent="1" source="yqO04anQ9EkwRPlKjCKc-29" edge="1">
=======
        <mxCell id="yqO04anQ9EkwRPlKjCKc-61" value="" style="shape=flexArrow;endArrow=classic;html=1;rounded=0;strokeColor=none;fillColor=#A3A3A3;exitX=0.5;exitY=1;exitDx=0;exitDy=0;" edge="1" parent="1" source="yqO04anQ9EkwRPlKjCKc-29">
>>>>>>> 58f25b2019dedea0701d8c639c47b384e1c0a5da
          <mxGeometry width="50" height="50" relative="1" as="geometry">
            <mxPoint x="100" y="660" as="sourcePoint" />
            <mxPoint x="260" y="910" as="targetPoint" />
          </mxGeometry>
        </mxCell>
<<<<<<< HEAD
        <mxCell id="yqO04anQ9EkwRPlKjCKc-62" value="" style="shape=flexArrow;endArrow=classic;html=1;rounded=0;strokeColor=none;fillColor=#A3A3A3;exitX=0.5;exitY=1;exitDx=0;exitDy=0;" parent="1" source="yqO04anQ9EkwRPlKjCKc-43" edge="1">
=======
        <mxCell id="yqO04anQ9EkwRPlKjCKc-62" value="" style="shape=flexArrow;endArrow=classic;html=1;rounded=0;strokeColor=none;fillColor=#A3A3A3;exitX=0.5;exitY=1;exitDx=0;exitDy=0;" edge="1" parent="1" source="yqO04anQ9EkwRPlKjCKc-43">
>>>>>>> 58f25b2019dedea0701d8c639c47b384e1c0a5da
          <mxGeometry width="50" height="50" relative="1" as="geometry">
            <mxPoint x="270" y="500" as="sourcePoint" />
            <mxPoint x="460" y="910" as="targetPoint" />
          </mxGeometry>
        </mxCell>
<<<<<<< HEAD
        <mxCell id="yqO04anQ9EkwRPlKjCKc-63" value="" style="shape=flexArrow;endArrow=classic;html=1;rounded=0;fillColor=#A3A3A3;strokeColor=none;exitX=0.5;exitY=1;exitDx=0;exitDy=0;" parent="1" source="yqO04anQ9EkwRPlKjCKc-44" edge="1">
=======
        <mxCell id="yqO04anQ9EkwRPlKjCKc-63" value="" style="shape=flexArrow;endArrow=classic;html=1;rounded=0;fillColor=#A3A3A3;strokeColor=none;exitX=0.5;exitY=1;exitDx=0;exitDy=0;" edge="1" parent="1" source="yqO04anQ9EkwRPlKjCKc-44">
>>>>>>> 58f25b2019dedea0701d8c639c47b384e1c0a5da
          <mxGeometry width="50" height="50" relative="1" as="geometry">
            <mxPoint x="270" y="500" as="sourcePoint" />
            <mxPoint x="620" y="910" as="targetPoint" />
          </mxGeometry>
        </mxCell>
<<<<<<< HEAD
        <mxCell id="yqO04anQ9EkwRPlKjCKc-73" value="" style="endArrow=classic;html=1;rounded=0;exitX=0.434;exitY=0.857;exitDx=0;exitDy=0;exitPerimeter=0;" parent="1" source="yqO04anQ9EkwRPlKjCKc-95" edge="1">
=======
        <mxCell id="yqO04anQ9EkwRPlKjCKc-73" value="" style="endArrow=classic;html=1;rounded=0;exitX=0.434;exitY=0.857;exitDx=0;exitDy=0;exitPerimeter=0;" edge="1" parent="1" source="yqO04anQ9EkwRPlKjCKc-95">
>>>>>>> 58f25b2019dedea0701d8c639c47b384e1c0a5da
          <mxGeometry width="50" height="50" relative="1" as="geometry">
            <mxPoint x="-78" y="790" as="sourcePoint" />
            <mxPoint x="-78" y="910" as="targetPoint" />
          </mxGeometry>
        </mxCell>
<<<<<<< HEAD
        <mxCell id="yqO04anQ9EkwRPlKjCKc-74" value="" style="shape=waypoint;sketch=0;fillStyle=solid;size=6;pointerEvents=1;points=[];fillColor=none;resizable=0;rotatable=0;perimeter=centerPerimeter;snapToPoint=1;" parent="1" vertex="1">
          <mxGeometry x="-70.00000000000001" y="930" width="20" height="20" as="geometry" />
        </mxCell>
        <mxCell id="yqO04anQ9EkwRPlKjCKc-75" value="" style="shape=waypoint;sketch=0;fillStyle=solid;size=6;pointerEvents=1;points=[];fillColor=none;resizable=0;rotatable=0;perimeter=centerPerimeter;snapToPoint=1;" parent="1" vertex="1">
          <mxGeometry x="-70.00000000000001" y="960" width="20" height="20" as="geometry" />
        </mxCell>
        <mxCell id="yqO04anQ9EkwRPlKjCKc-76" value="" style="shape=waypoint;sketch=0;fillStyle=solid;size=6;pointerEvents=1;points=[];fillColor=none;resizable=0;rotatable=0;perimeter=centerPerimeter;snapToPoint=1;" parent="1" vertex="1">
          <mxGeometry x="-70.00000000000001" y="990" width="20" height="20" as="geometry" />
        </mxCell>
        <mxCell id="yqO04anQ9EkwRPlKjCKc-83" value="" style="shape=flexArrow;endArrow=classic;html=1;rounded=0;fillColor=#A3A3A3;gradientColor=none;strokeColor=none;entryDx=0;entryDy=0;" parent="1" target="yqO04anQ9EkwRPlKjCKc-82" edge="1">
=======
        <mxCell id="yqO04anQ9EkwRPlKjCKc-74" value="" style="shape=waypoint;sketch=0;fillStyle=solid;size=6;pointerEvents=1;points=[];fillColor=none;resizable=0;rotatable=0;perimeter=centerPerimeter;snapToPoint=1;" vertex="1" parent="1">
          <mxGeometry x="-70.00000000000001" y="930" width="20" height="20" as="geometry" />
        </mxCell>
        <mxCell id="yqO04anQ9EkwRPlKjCKc-75" value="" style="shape=waypoint;sketch=0;fillStyle=solid;size=6;pointerEvents=1;points=[];fillColor=none;resizable=0;rotatable=0;perimeter=centerPerimeter;snapToPoint=1;" vertex="1" parent="1">
          <mxGeometry x="-70.00000000000001" y="960" width="20" height="20" as="geometry" />
        </mxCell>
        <mxCell id="yqO04anQ9EkwRPlKjCKc-76" value="" style="shape=waypoint;sketch=0;fillStyle=solid;size=6;pointerEvents=1;points=[];fillColor=none;resizable=0;rotatable=0;perimeter=centerPerimeter;snapToPoint=1;" vertex="1" parent="1">
          <mxGeometry x="-70.00000000000001" y="990" width="20" height="20" as="geometry" />
        </mxCell>
        <mxCell id="yqO04anQ9EkwRPlKjCKc-83" value="" style="shape=flexArrow;endArrow=classic;html=1;rounded=0;fillColor=#A3A3A3;gradientColor=none;strokeColor=none;entryDx=0;entryDy=0;" edge="1" parent="1" target="yqO04anQ9EkwRPlKjCKc-82">
>>>>>>> 58f25b2019dedea0701d8c639c47b384e1c0a5da
          <mxGeometry width="50" height="50" relative="1" as="geometry">
            <mxPoint x="460" y="280" as="sourcePoint" />
            <mxPoint x="460" y="370" as="targetPoint" />
          </mxGeometry>
        </mxCell>
<<<<<<< HEAD
        <mxCell id="yqO04anQ9EkwRPlKjCKc-82" value="" style="shape=waypoint;sketch=0;fillStyle=solid;size=6;pointerEvents=1;points=[];fillColor=#A3A3A3;resizable=0;rotatable=0;perimeter=centerPerimeter;snapToPoint=1;strokeColor=#A3A3A3;strokeWidth=9;" parent="1" vertex="1">
          <mxGeometry x="450" y="270" width="20" height="20" as="geometry" />
        </mxCell>
        <mxCell id="yqO04anQ9EkwRPlKjCKc-85" value="" style="shape=flexArrow;endArrow=classic;html=1;rounded=0;fillColor=#A3A3A3;gradientColor=none;strokeColor=none;entryDx=0;entryDy=0;" parent="1" target="yqO04anQ9EkwRPlKjCKc-84" edge="1">
=======
        <mxCell id="yqO04anQ9EkwRPlKjCKc-82" value="" style="shape=waypoint;sketch=0;fillStyle=solid;size=6;pointerEvents=1;points=[];fillColor=#A3A3A3;resizable=0;rotatable=0;perimeter=centerPerimeter;snapToPoint=1;strokeColor=#A3A3A3;strokeWidth=9;" vertex="1" parent="1">
          <mxGeometry x="450" y="270" width="20" height="20" as="geometry" />
        </mxCell>
        <mxCell id="yqO04anQ9EkwRPlKjCKc-85" value="" style="shape=flexArrow;endArrow=classic;html=1;rounded=0;fillColor=#A3A3A3;gradientColor=none;strokeColor=none;entryDx=0;entryDy=0;" edge="1" parent="1" target="yqO04anQ9EkwRPlKjCKc-84">
>>>>>>> 58f25b2019dedea0701d8c639c47b384e1c0a5da
          <mxGeometry width="50" height="50" relative="1" as="geometry">
            <mxPoint x="520" y="320" as="sourcePoint" />
            <mxPoint x="620" y="650" as="targetPoint" />
            <Array as="points" />
          </mxGeometry>
        </mxCell>
<<<<<<< HEAD
        <mxCell id="yqO04anQ9EkwRPlKjCKc-84" value="" style="shape=waypoint;sketch=0;fillStyle=solid;size=6;pointerEvents=1;points=[];fillColor=#A3A3A3;resizable=0;rotatable=0;perimeter=centerPerimeter;snapToPoint=1;strokeColor=#A3A3A3;strokeWidth=9;" parent="1" vertex="1">
          <mxGeometry x="510" y="310" width="20" height="20" as="geometry" />
        </mxCell>
        <mxCell id="yqO04anQ9EkwRPlKjCKc-87" value="" style="endArrow=classic;html=1;rounded=0;entryX=0.003;entryY=0.664;entryDx=0;entryDy=0;entryPerimeter=0;exitX=0.813;exitY=0.478;exitDx=0;exitDy=0;exitPerimeter=0;" parent="1" source="yqO04anQ9EkwRPlKjCKc-97" target="yqO04anQ9EkwRPlKjCKc-43" edge="1">
=======
        <mxCell id="yqO04anQ9EkwRPlKjCKc-84" value="" style="shape=waypoint;sketch=0;fillStyle=solid;size=6;pointerEvents=1;points=[];fillColor=#A3A3A3;resizable=0;rotatable=0;perimeter=centerPerimeter;snapToPoint=1;strokeColor=#A3A3A3;strokeWidth=9;" vertex="1" parent="1">
          <mxGeometry x="510" y="310" width="20" height="20" as="geometry" />
        </mxCell>
        <mxCell id="yqO04anQ9EkwRPlKjCKc-87" value="" style="endArrow=classic;html=1;rounded=0;entryX=0.003;entryY=0.664;entryDx=0;entryDy=0;entryPerimeter=0;exitX=0.813;exitY=0.478;exitDx=0;exitDy=0;exitPerimeter=0;" edge="1" parent="1" source="yqO04anQ9EkwRPlKjCKc-97" target="yqO04anQ9EkwRPlKjCKc-43">
>>>>>>> 58f25b2019dedea0701d8c639c47b384e1c0a5da
          <mxGeometry width="50" height="50" relative="1" as="geometry">
            <mxPoint x="-50" y="410" as="sourcePoint" />
            <mxPoint x="670" y="330" as="targetPoint" />
          </mxGeometry>
        </mxCell>
<<<<<<< HEAD
        <mxCell id="yqO04anQ9EkwRPlKjCKc-88" value="" style="endArrow=classic;html=1;rounded=0;entryX=0.002;entryY=0.667;entryDx=0;entryDy=0;entryPerimeter=0;exitX=0.641;exitY=0.391;exitDx=0;exitDy=0;exitPerimeter=0;" parent="1" source="yqO04anQ9EkwRPlKjCKc-93" target="yqO04anQ9EkwRPlKjCKc-28" edge="1">
=======
        <mxCell id="yqO04anQ9EkwRPlKjCKc-88" value="" style="endArrow=classic;html=1;rounded=0;entryX=0.002;entryY=0.667;entryDx=0;entryDy=0;entryPerimeter=0;exitX=0.641;exitY=0.391;exitDx=0;exitDy=0;exitPerimeter=0;" edge="1" parent="1" source="yqO04anQ9EkwRPlKjCKc-93" target="yqO04anQ9EkwRPlKjCKc-28">
>>>>>>> 58f25b2019dedea0701d8c639c47b384e1c0a5da
          <mxGeometry width="50" height="50" relative="1" as="geometry">
            <mxPoint x="-60" y="520" as="sourcePoint" />
            <mxPoint x="670" y="330" as="targetPoint" />
          </mxGeometry>
        </mxCell>
<<<<<<< HEAD
        <mxCell id="yqO04anQ9EkwRPlKjCKc-89" value="" style="endArrow=classic;html=1;rounded=0;exitX=0.641;exitY=0.512;exitDx=0;exitDy=0;exitPerimeter=0;" parent="1" source="yqO04anQ9EkwRPlKjCKc-96" edge="1">
=======
        <mxCell id="yqO04anQ9EkwRPlKjCKc-89" value="" style="endArrow=classic;html=1;rounded=0;exitX=0.641;exitY=0.512;exitDx=0;exitDy=0;exitPerimeter=0;" edge="1" parent="1" source="yqO04anQ9EkwRPlKjCKc-96">
>>>>>>> 58f25b2019dedea0701d8c639c47b384e1c0a5da
          <mxGeometry width="50" height="50" relative="1" as="geometry">
            <mxPoint x="-60" y="690" as="sourcePoint" />
            <mxPoint x="560" y="690" as="targetPoint" />
          </mxGeometry>
        </mxCell>
<<<<<<< HEAD
        <mxCell id="yqO04anQ9EkwRPlKjCKc-90" value="" style="endArrow=classic;html=1;rounded=0;exitX=0.813;exitY=0.512;exitDx=0;exitDy=0;exitPerimeter=0;" parent="1" source="yqO04anQ9EkwRPlKjCKc-95" edge="1">
=======
        <mxCell id="yqO04anQ9EkwRPlKjCKc-90" value="" style="endArrow=classic;html=1;rounded=0;exitX=0.813;exitY=0.512;exitDx=0;exitDy=0;exitPerimeter=0;" edge="1" parent="1" source="yqO04anQ9EkwRPlKjCKc-95">
>>>>>>> 58f25b2019dedea0701d8c639c47b384e1c0a5da
          <mxGeometry width="50" height="50" relative="1" as="geometry">
            <mxPoint x="-60" y="770" as="sourcePoint" />
            <mxPoint x="200" y="770" as="targetPoint" />
          </mxGeometry>
        </mxCell>
<<<<<<< HEAD
        <mxCell id="yqO04anQ9EkwRPlKjCKc-93" value="" style="shape=waypoint;sketch=0;fillStyle=solid;size=6;pointerEvents=1;points=[];fillColor=none;resizable=0;rotatable=0;perimeter=centerPerimeter;snapToPoint=1;" parent="1" vertex="1">
          <mxGeometry x="-88.44" y="510" width="20" height="20" as="geometry" />
        </mxCell>
        <mxCell id="yqO04anQ9EkwRPlKjCKc-95" value="" style="shape=waypoint;sketch=0;fillStyle=solid;size=6;pointerEvents=1;points=[];fillColor=none;resizable=0;rotatable=0;perimeter=centerPerimeter;snapToPoint=1;" parent="1" vertex="1">
          <mxGeometry x="-88.44" y="760" width="20" height="20" as="geometry" />
        </mxCell>
        <mxCell id="yqO04anQ9EkwRPlKjCKc-96" value="" style="shape=waypoint;sketch=0;fillStyle=solid;size=6;pointerEvents=1;points=[];fillColor=none;resizable=0;rotatable=0;perimeter=centerPerimeter;snapToPoint=1;" parent="1" vertex="1">
          <mxGeometry x="-88.44" y="680" width="20" height="20" as="geometry" />
        </mxCell>
        <mxCell id="yqO04anQ9EkwRPlKjCKc-97" value="" style="shape=waypoint;sketch=0;fillStyle=solid;size=6;pointerEvents=1;points=[];fillColor=none;resizable=0;rotatable=0;perimeter=centerPerimeter;snapToPoint=1;" parent="1" vertex="1">
          <mxGeometry x="-88.44" y="400" width="20" height="20" as="geometry" />
        </mxCell>
        <mxCell id="yqO04anQ9EkwRPlKjCKc-98" value="" style="endArrow=none;html=1;rounded=0;exitX=0;exitY=0.5;exitDx=0;exitDy=0;entryX=0.722;entryY=0.55;entryDx=0;entryDy=0;entryPerimeter=0;" parent="1" source="yqO04anQ9EkwRPlKjCKc-10" target="yqO04anQ9EkwRPlKjCKc-97" edge="1">
=======
        <mxCell id="yqO04anQ9EkwRPlKjCKc-93" value="" style="shape=waypoint;sketch=0;fillStyle=solid;size=6;pointerEvents=1;points=[];fillColor=none;resizable=0;rotatable=0;perimeter=centerPerimeter;snapToPoint=1;" vertex="1" parent="1">
          <mxGeometry x="-88.44" y="510" width="20" height="20" as="geometry" />
        </mxCell>
        <mxCell id="yqO04anQ9EkwRPlKjCKc-95" value="" style="shape=waypoint;sketch=0;fillStyle=solid;size=6;pointerEvents=1;points=[];fillColor=none;resizable=0;rotatable=0;perimeter=centerPerimeter;snapToPoint=1;" vertex="1" parent="1">
          <mxGeometry x="-88.44" y="760" width="20" height="20" as="geometry" />
        </mxCell>
        <mxCell id="yqO04anQ9EkwRPlKjCKc-96" value="" style="shape=waypoint;sketch=0;fillStyle=solid;size=6;pointerEvents=1;points=[];fillColor=none;resizable=0;rotatable=0;perimeter=centerPerimeter;snapToPoint=1;" vertex="1" parent="1">
          <mxGeometry x="-88.44" y="680" width="20" height="20" as="geometry" />
        </mxCell>
        <mxCell id="yqO04anQ9EkwRPlKjCKc-97" value="" style="shape=waypoint;sketch=0;fillStyle=solid;size=6;pointerEvents=1;points=[];fillColor=none;resizable=0;rotatable=0;perimeter=centerPerimeter;snapToPoint=1;" vertex="1" parent="1">
          <mxGeometry x="-88.44" y="400" width="20" height="20" as="geometry" />
        </mxCell>
        <mxCell id="yqO04anQ9EkwRPlKjCKc-98" value="" style="endArrow=none;html=1;rounded=0;exitX=0;exitY=0.5;exitDx=0;exitDy=0;entryX=0.722;entryY=0.55;entryDx=0;entryDy=0;entryPerimeter=0;" edge="1" parent="1" source="yqO04anQ9EkwRPlKjCKc-10" target="yqO04anQ9EkwRPlKjCKc-97">
>>>>>>> 58f25b2019dedea0701d8c639c47b384e1c0a5da
          <mxGeometry width="50" height="50" relative="1" as="geometry">
            <mxPoint x="280" y="410" as="sourcePoint" />
            <mxPoint x="330" y="360" as="targetPoint" />
          </mxGeometry>
        </mxCell>
<<<<<<< HEAD
        <mxCell id="yqO04anQ9EkwRPlKjCKc-99" value="" style="endArrow=none;html=1;rounded=0;exitX=0.722;exitY=0.3;exitDx=0;exitDy=0;exitPerimeter=0;entryX=0.622;entryY=0.3;entryDx=0;entryDy=0;entryPerimeter=0;" parent="1" source="yqO04anQ9EkwRPlKjCKc-93" target="yqO04anQ9EkwRPlKjCKc-97" edge="1">
=======
        <mxCell id="yqO04anQ9EkwRPlKjCKc-99" value="" style="endArrow=none;html=1;rounded=0;exitX=0.722;exitY=0.3;exitDx=0;exitDy=0;exitPerimeter=0;entryX=0.622;entryY=0.3;entryDx=0;entryDy=0;entryPerimeter=0;" edge="1" parent="1" source="yqO04anQ9EkwRPlKjCKc-93" target="yqO04anQ9EkwRPlKjCKc-97">
>>>>>>> 58f25b2019dedea0701d8c639c47b384e1c0a5da
          <mxGeometry width="50" height="50" relative="1" as="geometry">
            <mxPoint x="280" y="410" as="sourcePoint" />
            <mxPoint x="330" y="360" as="targetPoint" />
          </mxGeometry>
        </mxCell>
<<<<<<< HEAD
        <mxCell id="yqO04anQ9EkwRPlKjCKc-100" value="" style="endArrow=none;html=1;rounded=0;exitX=0.622;exitY=0.65;exitDx=0;exitDy=0;exitPerimeter=0;entryX=0.072;entryY=0.95;entryDx=0;entryDy=0;entryPerimeter=0;" parent="1" source="yqO04anQ9EkwRPlKjCKc-96" target="yqO04anQ9EkwRPlKjCKc-93" edge="1">
=======
        <mxCell id="yqO04anQ9EkwRPlKjCKc-100" value="" style="endArrow=none;html=1;rounded=0;exitX=0.622;exitY=0.65;exitDx=0;exitDy=0;exitPerimeter=0;entryX=0.072;entryY=0.95;entryDx=0;entryDy=0;entryPerimeter=0;" edge="1" parent="1" source="yqO04anQ9EkwRPlKjCKc-96" target="yqO04anQ9EkwRPlKjCKc-93">
>>>>>>> 58f25b2019dedea0701d8c639c47b384e1c0a5da
          <mxGeometry width="50" height="50" relative="1" as="geometry">
            <mxPoint x="280" y="410" as="sourcePoint" />
            <mxPoint x="330" y="360" as="targetPoint" />
          </mxGeometry>
        </mxCell>
<<<<<<< HEAD
        <mxCell id="yqO04anQ9EkwRPlKjCKc-101" value="" style="endArrow=none;html=1;rounded=0;exitX=0.322;exitY=0.25;exitDx=0;exitDy=0;exitPerimeter=0;entryX=0.772;entryY=0.2;entryDx=0;entryDy=0;entryPerimeter=0;" parent="1" source="yqO04anQ9EkwRPlKjCKc-95" target="yqO04anQ9EkwRPlKjCKc-96" edge="1">
=======
        <mxCell id="yqO04anQ9EkwRPlKjCKc-101" value="" style="endArrow=none;html=1;rounded=0;exitX=0.322;exitY=0.25;exitDx=0;exitDy=0;exitPerimeter=0;entryX=0.772;entryY=0.2;entryDx=0;entryDy=0;entryPerimeter=0;" edge="1" parent="1" source="yqO04anQ9EkwRPlKjCKc-95" target="yqO04anQ9EkwRPlKjCKc-96">
>>>>>>> 58f25b2019dedea0701d8c639c47b384e1c0a5da
          <mxGeometry width="50" height="50" relative="1" as="geometry">
            <mxPoint x="280" y="810" as="sourcePoint" />
            <mxPoint x="330" y="760" as="targetPoint" />
          </mxGeometry>
        </mxCell>
<<<<<<< HEAD
        <mxCell id="yqO04anQ9EkwRPlKjCKc-106" value="" style="endArrow=classic;html=1;rounded=0;" parent="1" edge="1">
          <mxGeometry width="50" height="50" relative="1" as="geometry">
            <mxPoint x="-40" y="390" as="sourcePoint" />
            <mxPoint x="-40" y="390" as="targetPoint" />
          </mxGeometry>
        </mxCell>
        <mxCell id="yqO04anQ9EkwRPlKjCKc-108" value="" style="endArrow=classic;html=1;rounded=0;" parent="1" edge="1">
          <mxGeometry width="50" height="50" relative="1" as="geometry">
            <mxPoint x="-40" y="500" as="sourcePoint" />
            <mxPoint x="-40" y="500" as="targetPoint" />
          </mxGeometry>
        </mxCell>
        <mxCell id="yqO04anQ9EkwRPlKjCKc-111" value="" style="endArrow=classic;html=1;rounded=0;entryDx=0;entryDy=0;entryPerimeter=0;" parent="1" edge="1" source="xnQYNS8LpG-LKZzHwpVI-5">
          <mxGeometry width="50" height="50" relative="1" as="geometry">
            <mxPoint x="-40" y="670" as="sourcePoint" />
            <mxPoint x="-40" y="670" as="targetPoint" />
          </mxGeometry>
        </mxCell>
        <mxCell id="yqO04anQ9EkwRPlKjCKc-114" value="" style="endArrow=classic;html=1;rounded=0;entryDx=0;entryDy=0;entryPerimeter=0;" parent="1" edge="1" source="xnQYNS8LpG-LKZzHwpVI-6">
          <mxGeometry width="50" height="50" relative="1" as="geometry">
            <mxPoint x="-40" y="750" as="sourcePoint" />
            <mxPoint x="-40" y="750" as="targetPoint" />
          </mxGeometry>
        </mxCell>
        <mxCell id="yqO04anQ9EkwRPlKjCKc-120" value="" style="shape=flexArrow;endArrow=classic;html=1;rounded=0;strokeColor=none;fillColor=#A3A3A3;exitX=1;exitY=0.5;exitDx=0;exitDy=0;entryX=0;entryY=0.167;entryDx=0;entryDy=0;entryPerimeter=0;" parent="1" source="yqO04anQ9EkwRPlKjCKc-43" target="yqO04anQ9EkwRPlKjCKc-122" edge="1">
          <mxGeometry width="50" height="50" relative="1" as="geometry">
            <mxPoint x="1220" y="330" as="sourcePoint" />
            <mxPoint x="720" y="400" as="targetPoint" />
          </mxGeometry>
        </mxCell>
        <mxCell id="yqO04anQ9EkwRPlKjCKc-121" value="" style="shape=flexArrow;endArrow=classic;html=1;rounded=0;strokeColor=none;fillColor=#A3A3A3;exitX=1;exitY=0.5;exitDx=0;exitDy=0;entryX=0.002;entryY=0.78;entryDx=0;entryDy=0;entryPerimeter=0;" parent="1" source="yqO04anQ9EkwRPlKjCKc-28" target="yqO04anQ9EkwRPlKjCKc-122" edge="1">
          <mxGeometry width="50" height="50" relative="1" as="geometry">
            <mxPoint x="1220" y="330" as="sourcePoint" />
            <mxPoint x="690" y="510" as="targetPoint" />
          </mxGeometry>
        </mxCell>
        <mxCell id="yqO04anQ9EkwRPlKjCKc-122" value="" style="shape=or;whiteSpace=wrap;html=1;" parent="1" vertex="1">
          <mxGeometry x="750" y="370" width="80" height="180" as="geometry" />
        </mxCell>
        <mxCell id="yqO04anQ9EkwRPlKjCKc-123" value="" style="shape=flexArrow;endArrow=classic;html=1;rounded=0;strokeColor=none;fillColor=#A3A3A3;exitX=1;exitY=0.5;exitDx=0;exitDy=0;exitPerimeter=0;entryX=0.002;entryY=0.761;entryDx=0;entryDy=0;entryPerimeter=0;" parent="1" source="yqO04anQ9EkwRPlKjCKc-122" target="yqO04anQ9EkwRPlKjCKc-124" edge="1">
          <mxGeometry width="50" height="50" relative="1" as="geometry">
            <mxPoint x="570" y="410" as="sourcePoint" />
            <mxPoint x="920" y="460" as="targetPoint" />
          </mxGeometry>
        </mxCell>
        <mxCell id="yqO04anQ9EkwRPlKjCKc-124" value="CNT1&lt;br&gt;&lt;span style=&quot;font-weight: normal;&quot;&gt;(pre_stage_unit)&lt;/span&gt;" style="rounded=0;whiteSpace=wrap;html=1;fontStyle=1;rotation=0;" parent="1" vertex="1">
          <mxGeometry x="920" y="300" width="100" height="210" as="geometry" />
        </mxCell>
        <mxCell id="yqO04anQ9EkwRPlKjCKc-125" value="&lt;b&gt;A &amp;amp; B&lt;/b&gt;" style="text;html=1;align=center;verticalAlign=middle;resizable=0;points=[];autosize=1;strokeColor=none;fillColor=none;" parent="1" vertex="1">
          <mxGeometry x="750" y="445" width="60" height="30" as="geometry" />
        </mxCell>
        <mxCell id="yqO04anQ9EkwRPlKjCKc-126" value="" style="endArrow=classic;html=1;rounded=0;entryX=0.5;entryY=0;entryDx=0;entryDy=0;exitX=0.61;exitY=0.527;exitDx=0;exitDy=0;exitPerimeter=0;" parent="1" source="xnQYNS8LpG-LKZzHwpVI-4" target="yqO04anQ9EkwRPlKjCKc-127" edge="1">
          <mxGeometry width="50" height="50" relative="1" as="geometry">
            <mxPoint x="600" y="180" as="sourcePoint" />
            <mxPoint x="690" y="170" as="targetPoint" />
            <Array as="points">
              <mxPoint x="865" y="180" />
            </Array>
          </mxGeometry>
        </mxCell>
        <mxCell id="yqO04anQ9EkwRPlKjCKc-127" value="" style="rounded=0;whiteSpace=wrap;html=1;" parent="1" vertex="1">
          <mxGeometry x="840" y="250" width="50" height="30" as="geometry" />
        </mxCell>
        <mxCell id="yqO04anQ9EkwRPlKjCKc-128" value="" style="shape=waypoint;sketch=0;fillStyle=solid;size=6;pointerEvents=1;points=[];fillColor=none;resizable=0;rotatable=0;perimeter=centerPerimeter;snapToPoint=1;" parent="1" vertex="1">
          <mxGeometry x="855" y="340" width="20" height="20" as="geometry" />
        </mxCell>
        <mxCell id="yqO04anQ9EkwRPlKjCKc-129" value="" style="endArrow=none;html=1;rounded=0;exitX=0.507;exitY=0.229;exitDx=0;exitDy=0;exitPerimeter=0;entryX=0.5;entryY=1;entryDx=0;entryDy=0;" parent="1" source="yqO04anQ9EkwRPlKjCKc-128" target="yqO04anQ9EkwRPlKjCKc-127" edge="1">
          <mxGeometry width="50" height="50" relative="1" as="geometry">
            <mxPoint x="830" y="290" as="sourcePoint" />
            <mxPoint x="880" y="240" as="targetPoint" />
          </mxGeometry>
        </mxCell>
        <mxCell id="yqO04anQ9EkwRPlKjCKc-131" value="" style="endArrow=classic;html=1;rounded=0;exitX=0.364;exitY=0.514;exitDx=0;exitDy=0;exitPerimeter=0;" parent="1" source="yqO04anQ9EkwRPlKjCKc-128" edge="1">
          <mxGeometry width="50" height="50" relative="1" as="geometry">
            <mxPoint x="870" y="350" as="sourcePoint" />
            <mxPoint x="920" y="350" as="targetPoint" />
          </mxGeometry>
        </mxCell>
        <mxCell id="yqO04anQ9EkwRPlKjCKc-132" value="" style="endArrow=classic;html=1;rounded=0;exitX=0.253;exitY=0.526;exitDx=0;exitDy=0;exitPerimeter=0;" parent="1" source="yqO04anQ9EkwRPlKjCKc-128" edge="1">
          <mxGeometry width="50" height="50" relative="1" as="geometry">
            <mxPoint x="860" y="510" as="sourcePoint" />
            <mxPoint x="865" y="910" as="targetPoint" />
          </mxGeometry>
        </mxCell>
        <mxCell id="yqO04anQ9EkwRPlKjCKc-133" value="" style="shape=waypoint;sketch=0;fillStyle=solid;size=6;pointerEvents=1;points=[];fillColor=none;resizable=0;rotatable=0;perimeter=centerPerimeter;snapToPoint=1;" parent="1" vertex="1">
          <mxGeometry x="610" y="930" width="20" height="20" as="geometry" />
        </mxCell>
        <mxCell id="yqO04anQ9EkwRPlKjCKc-134" value="" style="shape=waypoint;sketch=0;fillStyle=solid;size=6;pointerEvents=1;points=[];fillColor=none;resizable=0;rotatable=0;perimeter=centerPerimeter;snapToPoint=1;" parent="1" vertex="1">
          <mxGeometry x="610" y="960" width="20" height="20" as="geometry" />
        </mxCell>
        <mxCell id="yqO04anQ9EkwRPlKjCKc-135" value="" style="shape=waypoint;sketch=0;fillStyle=solid;size=6;pointerEvents=1;points=[];fillColor=none;resizable=0;rotatable=0;perimeter=centerPerimeter;snapToPoint=1;" parent="1" vertex="1">
          <mxGeometry x="610" y="990" width="20" height="20" as="geometry" />
        </mxCell>
        <mxCell id="yqO04anQ9EkwRPlKjCKc-137" value="&lt;b&gt;w_Valid&lt;/b&gt;" style="text;html=1;align=center;verticalAlign=middle;resizable=0;points=[];autosize=1;strokeColor=none;fillColor=none;" parent="1" vertex="1">
          <mxGeometry x="585" y="130" width="70" height="30" as="geometry" />
        </mxCell>
        <mxCell id="yqO04anQ9EkwRPlKjCKc-139" value="" style="shape=flexArrow;endArrow=classic;html=1;rounded=0;strokeColor=none;fillColor=#A3A3A3;exitX=1;exitY=0.5;exitDx=0;exitDy=0;" parent="1" source="yqO04anQ9EkwRPlKjCKc-124" edge="1">
          <mxGeometry width="50" height="50" relative="1" as="geometry">
            <mxPoint x="1220" y="340" as="sourcePoint" />
            <mxPoint x="1160" y="405" as="targetPoint" />
          </mxGeometry>
        </mxCell>
        <mxCell id="yqO04anQ9EkwRPlKjCKc-140" value="" style="shape=flexArrow;endArrow=classic;html=1;rounded=0;fillColor=#A3A3A3;strokeColor=none;exitX=1;exitY=0.5;exitDx=0;exitDy=0;" parent="1" source="yqO04anQ9EkwRPlKjCKc-44" edge="1">
          <mxGeometry width="50" height="50" relative="1" as="geometry">
            <mxPoint x="1220" y="340" as="sourcePoint" />
            <mxPoint x="920" y="680" as="targetPoint" />
          </mxGeometry>
        </mxCell>
        <mxCell id="yqO04anQ9EkwRPlKjCKc-141" value="" style="shape=flexArrow;endArrow=classic;html=1;rounded=0;fillColor=#A3A3A3;strokeColor=none;exitX=1;exitY=0.5;exitDx=0;exitDy=0;" parent="1" source="yqO04anQ9EkwRPlKjCKc-29" edge="1">
          <mxGeometry width="50" height="50" relative="1" as="geometry">
            <mxPoint x="690" y="740" as="sourcePoint" />
            <mxPoint x="920" y="760" as="targetPoint" />
          </mxGeometry>
        </mxCell>
        <mxCell id="yqO04anQ9EkwRPlKjCKc-142" value="&lt;b&gt;o_CntA&amp;amp;B&lt;/b&gt;" style="text;html=1;align=center;verticalAlign=middle;resizable=0;points=[];autosize=1;strokeColor=none;fillColor=none;" parent="1" vertex="1">
          <mxGeometry x="1110" y="358" width="80" height="30" as="geometry" />
        </mxCell>
        <mxCell id="yqO04anQ9EkwRPlKjCKc-143" value="&lt;b&gt;o_CntA&lt;/b&gt;" style="text;html=1;align=center;verticalAlign=middle;resizable=0;points=[];autosize=1;strokeColor=none;fillColor=none;" parent="1" vertex="1">
          <mxGeometry x="1110" y="630" width="70" height="30" as="geometry" />
        </mxCell>
        <mxCell id="yqO04anQ9EkwRPlKjCKc-144" value="&lt;b&gt;o_CntB&lt;/b&gt;" style="text;html=1;align=center;verticalAlign=middle;resizable=0;points=[];autosize=1;strokeColor=none;fillColor=none;" parent="1" vertex="1">
          <mxGeometry x="1110" y="710" width="70" height="30" as="geometry" />
        </mxCell>
        <mxCell id="yqO04anQ9EkwRPlKjCKc-145" value="&lt;b&gt;DELAY_SHR&lt;/b&gt;" style="rounded=0;whiteSpace=wrap;html=1;" parent="1" vertex="1">
          <mxGeometry x="920" y="660" width="100" height="40" as="geometry" />
        </mxCell>
        <mxCell id="yqO04anQ9EkwRPlKjCKc-146" value="&lt;b&gt;DELAY_SHR&lt;/b&gt;" style="rounded=0;whiteSpace=wrap;html=1;" parent="1" vertex="1">
          <mxGeometry x="920" y="740" width="100" height="40" as="geometry" />
        </mxCell>
        <mxCell id="yqO04anQ9EkwRPlKjCKc-147" value="" style="shape=flexArrow;endArrow=classic;html=1;rounded=0;fillColor=#A3A3A3;strokeColor=none;exitX=1;exitY=0.5;exitDx=0;exitDy=0;" parent="1" source="yqO04anQ9EkwRPlKjCKc-145" edge="1">
          <mxGeometry width="50" height="50" relative="1" as="geometry">
            <mxPoint x="690" y="690" as="sourcePoint" />
            <mxPoint x="1160" y="680" as="targetPoint" />
          </mxGeometry>
        </mxCell>
        <mxCell id="yqO04anQ9EkwRPlKjCKc-148" value="" style="shape=flexArrow;endArrow=classic;html=1;rounded=0;fillColor=#A3A3A3;strokeColor=none;exitX=1;exitY=0.5;exitDx=0;exitDy=0;" parent="1" source="yqO04anQ9EkwRPlKjCKc-146" edge="1">
          <mxGeometry width="50" height="50" relative="1" as="geometry">
            <mxPoint x="1030" y="690" as="sourcePoint" />
            <mxPoint x="1160" y="760" as="targetPoint" />
          </mxGeometry>
        </mxCell>
        <mxCell id="xnQYNS8LpG-LKZzHwpVI-3" value="" style="endArrow=none;html=1;rounded=0;entryX=0.75;entryY=1;entryDx=0;entryDy=0;" edge="1" parent="1" source="xnQYNS8LpG-LKZzHwpVI-4" target="yqO04anQ9EkwRPlKjCKc-6">
          <mxGeometry width="50" height="50" relative="1" as="geometry">
            <mxPoint x="570" y="180" as="sourcePoint" />
            <mxPoint x="600" y="220" as="targetPoint" />
          </mxGeometry>
        </mxCell>
        <mxCell id="xnQYNS8LpG-LKZzHwpVI-4" value="" style="shape=waypoint;sketch=0;fillStyle=solid;size=6;pointerEvents=1;points=[];fillColor=none;resizable=0;rotatable=0;perimeter=centerPerimeter;snapToPoint=1;" vertex="1" parent="1">
          <mxGeometry x="570" y="170" width="20" height="20" as="geometry" />
        </mxCell>
        <mxCell id="xnQYNS8LpG-LKZzHwpVI-7" value="" style="endArrow=classic;html=1;rounded=0;entryDx=0;entryDy=0;entryPerimeter=0;" edge="1" parent="1" target="xnQYNS8LpG-LKZzHwpVI-6">
          <mxGeometry width="50" height="50" relative="1" as="geometry">
            <mxPoint x="-40" y="750" as="sourcePoint" />
            <mxPoint x="-40" y="750" as="targetPoint" />
          </mxGeometry>
        </mxCell>
        <mxCell id="xnQYNS8LpG-LKZzHwpVI-6" value="" style="shape=waypoint;sketch=0;fillStyle=solid;size=6;pointerEvents=1;points=[];fillColor=none;resizable=0;rotatable=0;perimeter=centerPerimeter;snapToPoint=1;" vertex="1" parent="1">
          <mxGeometry x="-50" y="740" width="20" height="20" as="geometry" />
        </mxCell>
        <mxCell id="xnQYNS8LpG-LKZzHwpVI-8" value="" style="endArrow=classic;html=1;rounded=0;entryDx=0;entryDy=0;entryPerimeter=0;" edge="1" parent="1" target="xnQYNS8LpG-LKZzHwpVI-5">
          <mxGeometry width="50" height="50" relative="1" as="geometry">
            <mxPoint x="-40" y="670" as="sourcePoint" />
            <mxPoint x="-40" y="670" as="targetPoint" />
          </mxGeometry>
        </mxCell>
        <mxCell id="xnQYNS8LpG-LKZzHwpVI-5" value="" style="shape=waypoint;sketch=0;fillStyle=solid;size=6;pointerEvents=1;points=[];fillColor=none;resizable=0;rotatable=0;perimeter=centerPerimeter;snapToPoint=1;" vertex="1" parent="1">
          <mxGeometry x="-50" y="660" width="20" height="20" as="geometry" />
        </mxCell>
        <mxCell id="xnQYNS8LpG-LKZzHwpVI-9" value="" style="endArrow=classic;html=1;rounded=0;exitX=0.498;exitY=0.85;exitDx=0;exitDy=0;exitPerimeter=0;entryX=-0.003;entryY=0.342;entryDx=0;entryDy=0;entryPerimeter=0;" edge="1" parent="1" source="xnQYNS8LpG-LKZzHwpVI-5" target="yqO04anQ9EkwRPlKjCKc-44">
          <mxGeometry width="50" height="50" relative="1" as="geometry">
            <mxPoint x="330" y="590" as="sourcePoint" />
            <mxPoint x="560" y="670" as="targetPoint" />
          </mxGeometry>
        </mxCell>
        <mxCell id="xnQYNS8LpG-LKZzHwpVI-10" value="" style="endArrow=none;html=1;rounded=0;entryX=0;entryY=0.5;entryDx=0;entryDy=0;exitX=0.439;exitY=0.58;exitDx=0;exitDy=0;exitPerimeter=0;" edge="1" parent="1" source="xnQYNS8LpG-LKZzHwpVI-5" target="yqO04anQ9EkwRPlKjCKc-6">
          <mxGeometry width="50" height="50" relative="1" as="geometry">
            <mxPoint x="870" y="490" as="sourcePoint" />
            <mxPoint x="920" y="440" as="targetPoint" />
=======
        <mxCell id="yqO04anQ9EkwRPlKjCKc-103" value="" style="endArrow=classic;html=1;rounded=0;" edge="1" parent="1" source="yqO04anQ9EkwRPlKjCKc-105">
          <mxGeometry width="50" height="50" relative="1" as="geometry">
            <mxPoint x="-40" y="390" as="sourcePoint" />
            <mxPoint x="360" y="390" as="targetPoint" />
          </mxGeometry>
        </mxCell>
        <mxCell id="yqO04anQ9EkwRPlKjCKc-104" value="" style="endArrow=classic;html=1;rounded=0;" edge="1" parent="1" source="yqO04anQ9EkwRPlKjCKc-107">
          <mxGeometry width="50" height="50" relative="1" as="geometry">
            <mxPoint x="-40" y="500" as="sourcePoint" />
            <mxPoint y="500" as="targetPoint" />
          </mxGeometry>
        </mxCell>
        <mxCell id="yqO04anQ9EkwRPlKjCKc-106" value="" style="endArrow=classic;html=1;rounded=0;" edge="1" parent="1" target="yqO04anQ9EkwRPlKjCKc-105">
          <mxGeometry width="50" height="50" relative="1" as="geometry">
            <mxPoint x="-40" y="390" as="sourcePoint" />
            <mxPoint x="360" y="390" as="targetPoint" />
          </mxGeometry>
        </mxCell>
        <mxCell id="yqO04anQ9EkwRPlKjCKc-105" value="" style="shape=waypoint;sketch=0;fillStyle=solid;size=6;pointerEvents=1;points=[];fillColor=none;resizable=0;rotatable=0;perimeter=centerPerimeter;snapToPoint=1;" vertex="1" parent="1">
          <mxGeometry x="-50" y="380" width="20" height="20" as="geometry" />
        </mxCell>
        <mxCell id="yqO04anQ9EkwRPlKjCKc-108" value="" style="endArrow=classic;html=1;rounded=0;" edge="1" parent="1" target="yqO04anQ9EkwRPlKjCKc-107">
          <mxGeometry width="50" height="50" relative="1" as="geometry">
            <mxPoint x="-40" y="500" as="sourcePoint" />
            <mxPoint y="500" as="targetPoint" />
          </mxGeometry>
        </mxCell>
        <mxCell id="yqO04anQ9EkwRPlKjCKc-107" value="" style="shape=waypoint;sketch=0;fillStyle=solid;size=6;pointerEvents=1;points=[];fillColor=none;resizable=0;rotatable=0;perimeter=centerPerimeter;snapToPoint=1;" vertex="1" parent="1">
          <mxGeometry x="-50" y="490" width="20" height="20" as="geometry" />
        </mxCell>
        <mxCell id="yqO04anQ9EkwRPlKjCKc-109" value="" style="endArrow=classic;html=1;rounded=0;entryX=-0.004;entryY=0.322;entryDx=0;entryDy=0;entryPerimeter=0;" edge="1" parent="1" source="yqO04anQ9EkwRPlKjCKc-110" target="yqO04anQ9EkwRPlKjCKc-44">
          <mxGeometry width="50" height="50" relative="1" as="geometry">
            <mxPoint x="-40" y="670" as="sourcePoint" />
            <mxPoint x="530" y="660" as="targetPoint" />
          </mxGeometry>
        </mxCell>
        <mxCell id="yqO04anQ9EkwRPlKjCKc-111" value="" style="endArrow=classic;html=1;rounded=0;entryDx=0;entryDy=0;entryPerimeter=0;" edge="1" parent="1" target="yqO04anQ9EkwRPlKjCKc-110">
          <mxGeometry width="50" height="50" relative="1" as="geometry">
            <mxPoint x="-40" y="670" as="sourcePoint" />
            <mxPoint x="560" y="669" as="targetPoint" />
          </mxGeometry>
        </mxCell>
        <mxCell id="yqO04anQ9EkwRPlKjCKc-110" value="" style="shape=waypoint;sketch=0;fillStyle=solid;size=6;pointerEvents=1;points=[];fillColor=none;resizable=0;rotatable=0;perimeter=centerPerimeter;snapToPoint=1;" vertex="1" parent="1">
          <mxGeometry x="-50" y="660" width="20" height="20" as="geometry" />
        </mxCell>
        <mxCell id="yqO04anQ9EkwRPlKjCKc-112" value="" style="endArrow=classic;html=1;rounded=0;entryX=-0.004;entryY=0.326;entryDx=0;entryDy=0;entryPerimeter=0;" edge="1" parent="1" source="yqO04anQ9EkwRPlKjCKc-113" target="yqO04anQ9EkwRPlKjCKc-29">
          <mxGeometry width="50" height="50" relative="1" as="geometry">
            <mxPoint x="-40" y="750" as="sourcePoint" />
            <mxPoint x="230" y="550" as="targetPoint" />
          </mxGeometry>
        </mxCell>
        <mxCell id="yqO04anQ9EkwRPlKjCKc-114" value="" style="endArrow=classic;html=1;rounded=0;entryDx=0;entryDy=0;entryPerimeter=0;" edge="1" parent="1" target="yqO04anQ9EkwRPlKjCKc-113">
          <mxGeometry width="50" height="50" relative="1" as="geometry">
            <mxPoint x="-40" y="750" as="sourcePoint" />
            <mxPoint x="200" y="750" as="targetPoint" />
          </mxGeometry>
        </mxCell>
        <mxCell id="yqO04anQ9EkwRPlKjCKc-113" value="" style="shape=waypoint;sketch=0;fillStyle=solid;size=6;pointerEvents=1;points=[];fillColor=none;resizable=0;rotatable=0;perimeter=centerPerimeter;snapToPoint=1;" vertex="1" parent="1">
          <mxGeometry x="-50" y="740" width="20" height="20" as="geometry" />
        </mxCell>
        <mxCell id="yqO04anQ9EkwRPlKjCKc-115" value="" style="endArrow=none;html=1;rounded=0;entryX=0;entryY=0.5;entryDx=0;entryDy=0;exitX=0.34;exitY=0.34;exitDx=0;exitDy=0;exitPerimeter=0;" edge="1" parent="1" source="yqO04anQ9EkwRPlKjCKc-105" target="yqO04anQ9EkwRPlKjCKc-6">
          <mxGeometry width="50" height="50" relative="1" as="geometry">
            <mxPoint x="500" y="470" as="sourcePoint" />
            <mxPoint x="550" y="420" as="targetPoint" />
>>>>>>> 58f25b2019dedea0701d8c639c47b384e1c0a5da
            <Array as="points">
              <mxPoint x="-40" y="80" />
            </Array>
          </mxGeometry>
        </mxCell>
<<<<<<< HEAD
        <mxCell id="xnQYNS8LpG-LKZzHwpVI-11" value="" style="endArrow=none;html=1;rounded=0;entryX=1.226;entryY=0.626;entryDx=0;entryDy=0;entryPerimeter=0;" edge="1" parent="1" target="xnQYNS8LpG-LKZzHwpVI-6">
          <mxGeometry width="50" height="50" relative="1" as="geometry">
            <mxPoint x="-40" y="670" as="sourcePoint" />
            <mxPoint x="920" y="620" as="targetPoint" />
          </mxGeometry>
        </mxCell>
        <mxCell id="xnQYNS8LpG-LKZzHwpVI-12" value="" style="endArrow=classic;html=1;rounded=0;" edge="1" parent="1">
          <mxGeometry width="50" height="50" relative="1" as="geometry">
            <mxPoint x="-40" y="750" as="sourcePoint" />
            <mxPoint x="-40" y="910" as="targetPoint" />
          </mxGeometry>
        </mxCell>
        <mxCell id="xnQYNS8LpG-LKZzHwpVI-13" value="" style="endArrow=classic;html=1;rounded=0;entryX=-0.008;entryY=0.349;entryDx=0;entryDy=0;entryPerimeter=0;" edge="1" parent="1" target="yqO04anQ9EkwRPlKjCKc-29">
          <mxGeometry width="50" height="50" relative="1" as="geometry">
            <mxPoint x="-40" y="750" as="sourcePoint" />
            <mxPoint x="-20" y="560" as="targetPoint" />
          </mxGeometry>
        </mxCell>
        <mxCell id="xnQYNS8LpG-LKZzHwpVI-14" value="" style="shape=waypoint;sketch=0;fillStyle=solid;size=6;pointerEvents=1;points=[];fillColor=none;resizable=0;rotatable=0;perimeter=centerPerimeter;snapToPoint=1;" vertex="1" parent="1">
          <mxGeometry x="-30" y="380" width="20" height="20" as="geometry" />
        </mxCell>
        <mxCell id="xnQYNS8LpG-LKZzHwpVI-15" value="" style="shape=waypoint;sketch=0;fillStyle=solid;size=6;pointerEvents=1;points=[];fillColor=none;resizable=0;rotatable=0;perimeter=centerPerimeter;snapToPoint=1;" vertex="1" parent="1">
          <mxGeometry x="-30" y="490" width="20" height="20" as="geometry" />
        </mxCell>
        <mxCell id="xnQYNS8LpG-LKZzHwpVI-17" value="" style="endArrow=none;html=1;rounded=0;entryX=0.65;entryY=0.325;entryDx=0;entryDy=0;entryPerimeter=0;exitX=0.3;exitY=0.5;exitDx=0;exitDy=0;exitPerimeter=0;" edge="1" parent="1" source="xnQYNS8LpG-LKZzHwpVI-15" target="xnQYNS8LpG-LKZzHwpVI-14">
          <mxGeometry width="50" height="50" relative="1" as="geometry">
            <mxPoint x="100" y="550" as="sourcePoint" />
            <mxPoint x="150" y="500" as="targetPoint" />
          </mxGeometry>
        </mxCell>
        <mxCell id="xnQYNS8LpG-LKZzHwpVI-18" value="" style="endArrow=classic;html=1;rounded=0;exitX=0.725;exitY=0.5;exitDx=0;exitDy=0;exitPerimeter=0;" edge="1" parent="1" source="xnQYNS8LpG-LKZzHwpVI-15">
          <mxGeometry width="50" height="50" relative="1" as="geometry">
            <mxPoint x="100" y="550" as="sourcePoint" />
            <mxPoint x="-20" y="910" as="targetPoint" />
          </mxGeometry>
        </mxCell>
        <mxCell id="xnQYNS8LpG-LKZzHwpVI-19" value="" style="endArrow=classic;html=1;rounded=0;exitX=0.475;exitY=0.425;exitDx=0;exitDy=0;exitPerimeter=0;entryX=0;entryY=0.333;entryDx=0;entryDy=0;entryPerimeter=0;" edge="1" parent="1" source="xnQYNS8LpG-LKZzHwpVI-15" target="yqO04anQ9EkwRPlKjCKc-28">
          <mxGeometry width="50" height="50" relative="1" as="geometry">
            <mxPoint x="100" y="500" as="sourcePoint" />
            <mxPoint x="150" y="450" as="targetPoint" />
          </mxGeometry>
        </mxCell>
        <mxCell id="xnQYNS8LpG-LKZzHwpVI-20" value="" style="endArrow=classic;html=1;rounded=0;exitX=0.543;exitY=0.421;exitDx=0;exitDy=0;exitPerimeter=0;entryX=-0.004;entryY=0.336;entryDx=0;entryDy=0;entryPerimeter=0;" edge="1" parent="1" source="xnQYNS8LpG-LKZzHwpVI-14" target="yqO04anQ9EkwRPlKjCKc-43">
          <mxGeometry width="50" height="50" relative="1" as="geometry">
            <mxPoint x="140" y="500" as="sourcePoint" />
            <mxPoint x="190" y="450" as="targetPoint" />
=======
        <mxCell id="yqO04anQ9EkwRPlKjCKc-116" value="" style="endArrow=none;html=1;rounded=0;exitX=0.547;exitY=0.65;exitDx=0;exitDy=0;exitPerimeter=0;entryX=0.512;entryY=0.702;entryDx=0;entryDy=0;entryPerimeter=0;" edge="1" parent="1" source="yqO04anQ9EkwRPlKjCKc-105" target="yqO04anQ9EkwRPlKjCKc-107">
          <mxGeometry width="50" height="50" relative="1" as="geometry">
            <mxPoint x="500" y="470" as="sourcePoint" />
            <mxPoint x="550" y="420" as="targetPoint" />
          </mxGeometry>
        </mxCell>
        <mxCell id="yqO04anQ9EkwRPlKjCKc-117" value="" style="endArrow=none;html=1;rounded=0;entryX=0.65;entryY=0.771;entryDx=0;entryDy=0;entryPerimeter=0;exitX=0.374;exitY=0.478;exitDx=0;exitDy=0;exitPerimeter=0;" edge="1" parent="1" source="yqO04anQ9EkwRPlKjCKc-110" target="yqO04anQ9EkwRPlKjCKc-107">
          <mxGeometry width="50" height="50" relative="1" as="geometry">
            <mxPoint x="500" y="470" as="sourcePoint" />
            <mxPoint x="550" y="420" as="targetPoint" />
          </mxGeometry>
        </mxCell>
        <mxCell id="yqO04anQ9EkwRPlKjCKc-118" value="" style="endArrow=none;html=1;rounded=0;exitX=0.236;exitY=0.581;exitDx=0;exitDy=0;exitPerimeter=0;entryX=0.753;entryY=0.236;entryDx=0;entryDy=0;entryPerimeter=0;" edge="1" parent="1" source="yqO04anQ9EkwRPlKjCKc-110" target="yqO04anQ9EkwRPlKjCKc-113">
          <mxGeometry width="50" height="50" relative="1" as="geometry">
            <mxPoint x="500" y="470" as="sourcePoint" />
            <mxPoint x="550" y="420" as="targetPoint" />
          </mxGeometry>
        </mxCell>
        <mxCell id="yqO04anQ9EkwRPlKjCKc-119" value="" style="endArrow=classic;html=1;rounded=0;exitX=0.133;exitY=0.409;exitDx=0;exitDy=0;exitPerimeter=0;" edge="1" parent="1" source="yqO04anQ9EkwRPlKjCKc-113">
          <mxGeometry width="50" height="50" relative="1" as="geometry">
            <mxPoint x="500" y="740" as="sourcePoint" />
            <mxPoint x="-40" y="910" as="targetPoint" />
          </mxGeometry>
        </mxCell>
        <mxCell id="yqO04anQ9EkwRPlKjCKc-120" value="" style="shape=flexArrow;endArrow=classic;html=1;rounded=0;strokeColor=none;fillColor=#A3A3A3;exitX=1;exitY=0.5;exitDx=0;exitDy=0;entryX=0;entryY=0.167;entryDx=0;entryDy=0;entryPerimeter=0;" edge="1" parent="1" source="yqO04anQ9EkwRPlKjCKc-43" target="yqO04anQ9EkwRPlKjCKc-122">
          <mxGeometry width="50" height="50" relative="1" as="geometry">
            <mxPoint x="1220" y="330" as="sourcePoint" />
            <mxPoint x="720" y="400" as="targetPoint" />
          </mxGeometry>
        </mxCell>
        <mxCell id="yqO04anQ9EkwRPlKjCKc-121" value="" style="shape=flexArrow;endArrow=classic;html=1;rounded=0;strokeColor=none;fillColor=#A3A3A3;exitX=1;exitY=0.5;exitDx=0;exitDy=0;entryX=0.002;entryY=0.78;entryDx=0;entryDy=0;entryPerimeter=0;" edge="1" parent="1" source="yqO04anQ9EkwRPlKjCKc-28" target="yqO04anQ9EkwRPlKjCKc-122">
          <mxGeometry width="50" height="50" relative="1" as="geometry">
            <mxPoint x="1220" y="330" as="sourcePoint" />
            <mxPoint x="690" y="510" as="targetPoint" />
          </mxGeometry>
        </mxCell>
        <mxCell id="yqO04anQ9EkwRPlKjCKc-122" value="" style="shape=or;whiteSpace=wrap;html=1;" vertex="1" parent="1">
          <mxGeometry x="750" y="370" width="80" height="180" as="geometry" />
        </mxCell>
        <mxCell id="yqO04anQ9EkwRPlKjCKc-123" value="" style="shape=flexArrow;endArrow=classic;html=1;rounded=0;strokeColor=none;fillColor=#A3A3A3;exitX=1;exitY=0.5;exitDx=0;exitDy=0;exitPerimeter=0;entryX=0.002;entryY=0.761;entryDx=0;entryDy=0;entryPerimeter=0;" edge="1" parent="1" source="yqO04anQ9EkwRPlKjCKc-122" target="yqO04anQ9EkwRPlKjCKc-124">
          <mxGeometry width="50" height="50" relative="1" as="geometry">
            <mxPoint x="570" y="410" as="sourcePoint" />
            <mxPoint x="920" y="460" as="targetPoint" />
          </mxGeometry>
        </mxCell>
        <mxCell id="yqO04anQ9EkwRPlKjCKc-124" value="CNT1&lt;br&gt;&lt;span style=&quot;font-weight: normal;&quot;&gt;(pre_stage_unit)&lt;/span&gt;" style="rounded=0;whiteSpace=wrap;html=1;fontStyle=1;rotation=0;" vertex="1" parent="1">
          <mxGeometry x="920" y="300" width="100" height="210" as="geometry" />
        </mxCell>
        <mxCell id="yqO04anQ9EkwRPlKjCKc-125" value="&lt;b&gt;A &amp;amp; B&lt;/b&gt;" style="text;html=1;align=center;verticalAlign=middle;resizable=0;points=[];autosize=1;strokeColor=none;fillColor=none;" vertex="1" parent="1">
          <mxGeometry x="750" y="445" width="60" height="30" as="geometry" />
        </mxCell>
        <mxCell id="yqO04anQ9EkwRPlKjCKc-126" value="" style="endArrow=classic;html=1;rounded=0;exitX=0.75;exitY=1;exitDx=0;exitDy=0;entryX=0.5;entryY=0;entryDx=0;entryDy=0;" edge="1" parent="1" source="yqO04anQ9EkwRPlKjCKc-6" target="yqO04anQ9EkwRPlKjCKc-127">
          <mxGeometry width="50" height="50" relative="1" as="geometry">
            <mxPoint x="670" y="340" as="sourcePoint" />
            <mxPoint x="690" y="170" as="targetPoint" />
            <Array as="points">
              <mxPoint x="580" y="180" />
              <mxPoint x="865" y="180" />
            </Array>
          </mxGeometry>
        </mxCell>
        <mxCell id="yqO04anQ9EkwRPlKjCKc-127" value="" style="rounded=0;whiteSpace=wrap;html=1;" vertex="1" parent="1">
          <mxGeometry x="840" y="250" width="50" height="30" as="geometry" />
        </mxCell>
        <mxCell id="yqO04anQ9EkwRPlKjCKc-128" value="" style="shape=waypoint;sketch=0;fillStyle=solid;size=6;pointerEvents=1;points=[];fillColor=none;resizable=0;rotatable=0;perimeter=centerPerimeter;snapToPoint=1;" vertex="1" parent="1">
          <mxGeometry x="855" y="340" width="20" height="20" as="geometry" />
        </mxCell>
        <mxCell id="yqO04anQ9EkwRPlKjCKc-129" value="" style="endArrow=none;html=1;rounded=0;exitX=0.507;exitY=0.229;exitDx=0;exitDy=0;exitPerimeter=0;entryX=0.5;entryY=1;entryDx=0;entryDy=0;" edge="1" parent="1" source="yqO04anQ9EkwRPlKjCKc-128" target="yqO04anQ9EkwRPlKjCKc-127">
          <mxGeometry width="50" height="50" relative="1" as="geometry">
            <mxPoint x="830" y="290" as="sourcePoint" />
            <mxPoint x="880" y="240" as="targetPoint" />
          </mxGeometry>
        </mxCell>
        <mxCell id="yqO04anQ9EkwRPlKjCKc-131" value="" style="endArrow=classic;html=1;rounded=0;exitX=0.364;exitY=0.514;exitDx=0;exitDy=0;exitPerimeter=0;" edge="1" parent="1" source="yqO04anQ9EkwRPlKjCKc-128">
          <mxGeometry width="50" height="50" relative="1" as="geometry">
            <mxPoint x="870" y="350" as="sourcePoint" />
            <mxPoint x="920" y="350" as="targetPoint" />
          </mxGeometry>
        </mxCell>
        <mxCell id="yqO04anQ9EkwRPlKjCKc-132" value="" style="endArrow=classic;html=1;rounded=0;exitX=0.253;exitY=0.526;exitDx=0;exitDy=0;exitPerimeter=0;" edge="1" parent="1" source="yqO04anQ9EkwRPlKjCKc-128">
          <mxGeometry width="50" height="50" relative="1" as="geometry">
            <mxPoint x="860" y="510" as="sourcePoint" />
            <mxPoint x="865" y="910" as="targetPoint" />
          </mxGeometry>
        </mxCell>
        <mxCell id="yqO04anQ9EkwRPlKjCKc-133" value="" style="shape=waypoint;sketch=0;fillStyle=solid;size=6;pointerEvents=1;points=[];fillColor=none;resizable=0;rotatable=0;perimeter=centerPerimeter;snapToPoint=1;" vertex="1" parent="1">
          <mxGeometry x="610" y="930" width="20" height="20" as="geometry" />
        </mxCell>
        <mxCell id="yqO04anQ9EkwRPlKjCKc-134" value="" style="shape=waypoint;sketch=0;fillStyle=solid;size=6;pointerEvents=1;points=[];fillColor=none;resizable=0;rotatable=0;perimeter=centerPerimeter;snapToPoint=1;" vertex="1" parent="1">
          <mxGeometry x="610" y="960" width="20" height="20" as="geometry" />
        </mxCell>
        <mxCell id="yqO04anQ9EkwRPlKjCKc-135" value="" style="shape=waypoint;sketch=0;fillStyle=solid;size=6;pointerEvents=1;points=[];fillColor=none;resizable=0;rotatable=0;perimeter=centerPerimeter;snapToPoint=1;" vertex="1" parent="1">
          <mxGeometry x="610" y="990" width="20" height="20" as="geometry" />
        </mxCell>
        <mxCell id="yqO04anQ9EkwRPlKjCKc-137" value="&lt;b&gt;w_Valid&lt;/b&gt;" style="text;html=1;align=center;verticalAlign=middle;resizable=0;points=[];autosize=1;strokeColor=none;fillColor=none;" vertex="1" parent="1">
          <mxGeometry x="585" y="130" width="70" height="30" as="geometry" />
        </mxCell>
        <mxCell id="yqO04anQ9EkwRPlKjCKc-139" value="" style="shape=flexArrow;endArrow=classic;html=1;rounded=0;strokeColor=none;fillColor=#A3A3A3;exitX=1;exitY=0.5;exitDx=0;exitDy=0;" edge="1" parent="1" source="yqO04anQ9EkwRPlKjCKc-124">
          <mxGeometry width="50" height="50" relative="1" as="geometry">
            <mxPoint x="1220" y="340" as="sourcePoint" />
            <mxPoint x="1160" y="405" as="targetPoint" />
          </mxGeometry>
        </mxCell>
        <mxCell id="yqO04anQ9EkwRPlKjCKc-140" value="" style="shape=flexArrow;endArrow=classic;html=1;rounded=0;fillColor=#A3A3A3;strokeColor=none;exitX=1;exitY=0.5;exitDx=0;exitDy=0;" edge="1" parent="1" source="yqO04anQ9EkwRPlKjCKc-44">
          <mxGeometry width="50" height="50" relative="1" as="geometry">
            <mxPoint x="1220" y="340" as="sourcePoint" />
            <mxPoint x="920" y="680" as="targetPoint" />
          </mxGeometry>
        </mxCell>
        <mxCell id="yqO04anQ9EkwRPlKjCKc-141" value="" style="shape=flexArrow;endArrow=classic;html=1;rounded=0;fillColor=#A3A3A3;strokeColor=none;exitX=1;exitY=0.5;exitDx=0;exitDy=0;" edge="1" parent="1" source="yqO04anQ9EkwRPlKjCKc-29">
          <mxGeometry width="50" height="50" relative="1" as="geometry">
            <mxPoint x="690" y="740" as="sourcePoint" />
            <mxPoint x="920" y="760" as="targetPoint" />
          </mxGeometry>
        </mxCell>
        <mxCell id="yqO04anQ9EkwRPlKjCKc-142" value="&lt;b&gt;o_CntA&amp;amp;B&lt;/b&gt;" style="text;html=1;align=center;verticalAlign=middle;resizable=0;points=[];autosize=1;strokeColor=none;fillColor=none;" vertex="1" parent="1">
          <mxGeometry x="1110" y="358" width="80" height="30" as="geometry" />
        </mxCell>
        <mxCell id="yqO04anQ9EkwRPlKjCKc-143" value="&lt;b&gt;o_CntA&lt;/b&gt;" style="text;html=1;align=center;verticalAlign=middle;resizable=0;points=[];autosize=1;strokeColor=none;fillColor=none;" vertex="1" parent="1">
          <mxGeometry x="1110" y="630" width="70" height="30" as="geometry" />
        </mxCell>
        <mxCell id="yqO04anQ9EkwRPlKjCKc-144" value="&lt;b&gt;o_CntB&lt;/b&gt;" style="text;html=1;align=center;verticalAlign=middle;resizable=0;points=[];autosize=1;strokeColor=none;fillColor=none;" vertex="1" parent="1">
          <mxGeometry x="1110" y="710" width="70" height="30" as="geometry" />
        </mxCell>
        <mxCell id="yqO04anQ9EkwRPlKjCKc-145" value="&lt;b&gt;DELAY_SHR&lt;/b&gt;" style="rounded=0;whiteSpace=wrap;html=1;" vertex="1" parent="1">
          <mxGeometry x="920" y="660" width="100" height="40" as="geometry" />
        </mxCell>
        <mxCell id="yqO04anQ9EkwRPlKjCKc-146" value="&lt;b&gt;DELAY_SHR&lt;/b&gt;" style="rounded=0;whiteSpace=wrap;html=1;" vertex="1" parent="1">
          <mxGeometry x="920" y="740" width="100" height="40" as="geometry" />
        </mxCell>
        <mxCell id="yqO04anQ9EkwRPlKjCKc-147" value="" style="shape=flexArrow;endArrow=classic;html=1;rounded=0;fillColor=#A3A3A3;strokeColor=none;exitX=1;exitY=0.5;exitDx=0;exitDy=0;" edge="1" parent="1" source="yqO04anQ9EkwRPlKjCKc-145">
          <mxGeometry width="50" height="50" relative="1" as="geometry">
            <mxPoint x="690" y="690" as="sourcePoint" />
            <mxPoint x="1160" y="680" as="targetPoint" />
          </mxGeometry>
        </mxCell>
        <mxCell id="yqO04anQ9EkwRPlKjCKc-148" value="" style="shape=flexArrow;endArrow=classic;html=1;rounded=0;fillColor=#A3A3A3;strokeColor=none;exitX=1;exitY=0.5;exitDx=0;exitDy=0;" edge="1" parent="1" source="yqO04anQ9EkwRPlKjCKc-146">
          <mxGeometry width="50" height="50" relative="1" as="geometry">
            <mxPoint x="1030" y="690" as="sourcePoint" />
            <mxPoint x="1160" y="760" as="targetPoint" />
>>>>>>> 58f25b2019dedea0701d8c639c47b384e1c0a5da
          </mxGeometry>
        </mxCell>
      </root>
    </mxGraphModel>
  </diagram>
</mxfile>
